<?xml version="1.0" encoding="UTF-8"?>
<svg version="1.1" xmlns="http://www.w3.org/2000/svg" width="1620" height="1620">
<path d="M0 0 C2.28580611 1.17526939 4.51559395 2.42205054 6.74414062 3.70263672 C8.02973877 4.42531738 8.02973877 4.42531738 9.34130859 5.16259766 C17.82572034 9.96657055 26.2025534 14.95810923 34.5769043 19.95068359 C42.36897758 24.59551781 50.19423746 29.17738425 58.05664062 33.70263672 C59.12188965 34.31574707 60.18713867 34.92885742 61.28466797 35.56054688 C64.52056539 37.42144479 67.7573081 39.2808659 70.99414062 41.14013672 C75.41197081 43.67978626 79.82864328 46.2214334 84.24414062 48.76513672 C85.85216553 49.69132812 85.85216553 49.69132812 87.49267578 50.63623047 C95.5411185 55.28083476 103.55097299 59.98819876 111.52832031 64.75390625 C116.84115885 67.91601285 122.21711918 70.90524487 127.69140625 73.7800293 C130.56448985 75.47701283 132.26979396 77.29121614 133.99414062 80.14013672 C134.3485405 80.67134764 134.70294038 81.20255856 135.06807965 81.74986678 C136.46464856 85.35457184 136.26894194 88.94816756 136.24861622 92.75945568 C136.25342594 94.08433079 136.25342594 94.08433079 136.25833282 95.43597105 C136.26668095 98.41662277 136.26069172 101.39707606 136.25483704 104.37773132 C136.25785554 106.52791645 136.2617435 108.67810051 136.2664296 110.82828265 C136.27675747 116.75350962 136.27451563 122.67867641 136.27024901 128.60390842 C136.26779039 134.98785302 136.27678524 141.37178281 136.2842865 147.75572205 C136.29706037 160.26986596 136.29882964 172.78398781 136.29648624 185.29813709 C136.29465487 195.46816261 136.2964099 205.63818183 136.30071068 215.80820656 C136.30131308 217.26840666 136.30191427 218.72860676 136.30251428 220.18880687 C136.30342152 222.38911264 136.30433019 224.58941842 136.30524663 226.78972419 C136.31367936 247.25428251 136.31800975 267.71883844 136.31383991 288.18339825 C136.31368354 288.95526027 136.31352716 289.7271223 136.31336605 290.52237408 C136.31256024 294.43461784 136.31171447 298.3468616 136.31085274 302.25910535 C136.31068166 303.03610972 136.31051057 303.81311409 136.3103343 304.61366404 C136.30998764 306.18495769 136.30963911 307.75625133 136.30928871 309.32754497 C136.30393274 333.77119334 136.31185708 358.21480563 136.33032227 382.65844727 C136.35103726 410.11257588 136.36176578 437.56668214 136.35774678 465.02081901 C136.35735143 467.94820869 136.35698988 470.87559837 136.3566494 473.80298805 C136.35655867 474.52379979 136.35646794 475.24461154 136.35637445 475.98726606 C136.35520824 486.87103861 136.36185874 497.75478861 136.37246132 508.63855553 C136.38450868 521.01815886 136.38579936 533.397703 136.37367115 545.77730813 C136.36777001 552.09529174 136.36671713 558.41317817 136.37867355 564.7311554 C136.38949034 570.51410076 136.38647908 576.29686731 136.37241187 582.07980416 C136.3697533 584.17269754 136.37216768 586.26560474 136.38014773 588.35848459 C136.39024172 591.2030764 136.38184185 594.04704519 136.36887074 596.89161205 C136.37618008 597.70429386 136.38348943 598.51697567 136.39102027 599.3542842 C136.33321151 605.46994415 135.54603407 612.32425429 131.29492188 617.01513672 C130.63878906 617.38638672 129.98265625 617.75763672 129.30664062 618.14013672 C128.4996875 618.61451172 127.69273437 619.08888672 126.86132812 619.57763672 C125.44207031 620.35107422 125.44207031 620.35107422 123.99414062 621.14013672 C122.35832031 622.06826172 122.35832031 622.06826172 120.68945312 623.01513672 C118.04099739 624.51657874 115.38452608 626.0028547 112.72460938 627.48388672 C97.61465382 635.93232554 82.77853992 644.84512929 68.00527954 653.86495972 C59.73292421 658.91224828 51.39989714 663.82888934 42.96337891 668.59790039 C35.48266142 672.83474766 28.07630968 677.1930739 20.68164062 681.57763672 C20.10469452 681.91924835 19.52774841 682.26085999 18.93331909 682.61282349 C13.71488175 685.70394739 8.50684923 688.79410139 3.40429688 692.07373047 C-0.69911273 694.56021808 -2.28297192 694.92728463 -7.00585938 694.14013672 C-25.31713371 688.55780518 -42.44657555 676.38741095 -58.82226562 666.76513672 C-65.0914171 663.08219666 -71.39032515 659.45219229 -77.69335938 655.82763672 C-84.75214344 651.76719817 -91.79663335 647.68494089 -98.81445312 643.55419922 C-99.46796249 643.16978165 -100.12147186 642.78536407 -100.79478455 642.38929749 C-103.96977579 640.52107784 -107.14290688 638.64980768 -110.31323242 636.77368164 C-117.58574508 632.48137848 -124.83193486 628.41159569 -132.63085938 625.14013672 C-139.45121156 622.11016894 -144.79766248 618.36721935 -149.00585938 612.14013672 C-151.75221327 604.81652633 -152.15553656 597.28179193 -152.11938477 589.54272461 C-152.11953079 588.71264893 -152.11967682 587.88257324 -152.11982727 587.02734375 C-152.11913511 584.30579949 -152.11137558 581.58432516 -152.10351562 578.86279297 C-152.10164897 576.967077 -152.10022623 575.07136055 -152.09922791 573.17564392 C-152.09542225 568.20265353 -152.08560872 563.22969265 -152.07452393 558.25671387 C-152.06426775 553.17554117 -152.05972129 548.09436367 -152.0546875 543.01318359 C-152.04398461 533.05548838 -152.02693175 523.09781501 -152.00585938 513.14013672 C-152.48529495 513.68890472 -152.96473053 514.23767273 -153.45869446 514.80307007 C-154.08825546 515.52322296 -154.71781647 516.24337585 -155.36645508 516.98535156 C-155.99026566 517.69911957 -156.61407623 518.41288757 -157.25679016 519.14828491 C-159.21249177 521.37545108 -161.19742413 523.57399024 -163.19335938 525.76513672 C-167.30079498 530.31737076 -171.30131864 534.95255317 -175.28198242 539.61523438 C-179.54443262 544.60787307 -183.83962732 549.57122976 -188.14501953 554.52685547 C-190.8120032 557.59942465 -193.47037475 560.67853438 -196.10742188 563.77685547 C-201.31996063 569.90014453 -206.60183955 575.92305309 -212.07495117 581.81494141 C-214.99224407 584.97600016 -217.7495695 588.22493421 -220.44335938 591.57763672 C-223.80934445 595.76253767 -227.3378566 599.72303651 -231.00585938 603.64013672 C-235.41280963 608.35113345 -239.57322952 613.1833712 -243.61132812 618.21826172 C-245.88778372 620.99605746 -248.2305034 623.6953211 -250.60424805 626.3894043 C-257.18757445 633.86607787 -263.33294614 641.60184275 -269.32617188 649.55810547 C-269.80006348 650.18579834 -270.27395508 650.81349121 -270.76220703 651.46020508 C-271.76357354 652.81285584 -272.72037894 654.19843457 -273.66210938 655.59326172 C-275.00585938 657.14013672 -275.00585938 657.14013672 -278.38085938 657.70263672 C-282.81737987 657.01421113 -284.36070266 655.51499184 -287.00585938 652.14013672 C-287.57820313 651.42341797 -288.15054687 650.70669922 -288.74023438 649.96826172 C-290.08539396 648.27874128 -291.42629755 646.58582642 -292.76367188 644.89013672 C-295.90827077 641.03334644 -299.26497122 637.38955615 -302.63085938 633.72607422 C-307.37184702 628.56401201 -311.91004648 623.27637312 -316.31835938 617.82763672 C-320.20609919 613.04578298 -324.26984212 608.46717223 -328.45117188 603.94091797 C-334.07421426 597.77620636 -339.43797941 591.43175868 -344.69335938 584.95263672 C-349.7273878 578.77426308 -354.9181561 572.81331709 -360.44995117 567.07495117 C-364.00585938 563.34335219 -364.00585938 563.34335219 -364.00585938 561.14013672 C-364.66585938 561.14013672 -365.32585937 561.14013672 -366.00585938 561.14013672 C-367.42024343 559.56726988 -368.76190338 557.92873676 -370.06835938 556.26513672 C-374.52065957 550.69797483 -379.20803076 545.40902487 -384.00585938 540.14013672 C-385.34467745 538.66593254 -386.67847293 537.18714237 -388.00585938 535.70263672 C-388.84117187 534.77644531 -388.84117187 534.77644531 -389.69335938 533.83154297 C-391.00585938 532.14013672 -391.00585938 532.14013672 -392.00585938 529.14013672 C-392.66585938 529.14013672 -393.32585937 529.14013672 -394.00585938 529.14013672 C-395.48632812 527.70654297 -395.48632812 527.70654297 -397.19335938 525.70263672 C-398.01900391 524.74550781 -398.01900391 524.74550781 -398.86132812 523.76904297 C-401.97921202 519.94693757 -404.99021266 516.0431413 -408.00585938 512.14013672 C-407.88553535 518.44921696 -407.7612139 524.75820278 -407.63354492 531.06713867 C-407.59083997 533.20318587 -407.54913607 535.33925338 -407.50854492 537.4753418 C-407.28270201 549.32233603 -406.95424108 561.14941896 -406.35322571 572.98362732 C-406.01051537 579.7862853 -405.79185383 586.57818531 -405.75585938 593.39013672 C-405.72492188 594.92347656 -405.72492188 594.92347656 -405.69335938 596.48779297 C-405.64444341 606.0141767 -407.56986151 613.59820366 -413.79101562 620.96435547 C-422.4142812 629.43553523 -433.97386875 633.30339566 -444.94262695 637.79858398 C-454.89946289 641.94378949 -463.99153394 647.04814142 -473.25097656 652.53808594 C-478.31306143 655.48184709 -483.47188379 658.24580817 -488.63085938 661.01513672 C-489.71069092 661.59577881 -490.79052246 662.1764209 -491.90307617 662.7746582 C-497.64685644 665.84927747 -503.41148656 668.87950674 -509.20507812 671.85888672 C-509.79847992 672.16406219 -510.39188171 672.46923767 -511.00326538 672.78366089 C-513.92341814 674.28475976 -516.84396565 675.78508894 -519.76464844 677.28515625 C-526.5830622 680.81140013 -533.20262512 684.47989775 -539.62304688 688.68701172 C-545.61446298 692.34079335 -551.09347066 693.46975988 -558.00585938 692.14013672 C-562.92987708 690.13544417 -567.42055267 687.23151416 -571.921875 684.43115234 C-574.54410352 682.80669775 -577.20210896 681.24886651 -579.86547852 679.69311523 C-581.96207171 678.46766857 -584.05232304 677.23182804 -586.14257812 675.99560547 C-591.96796852 672.56320249 -597.83259686 669.19914834 -603.69335938 665.82763672 C-612.05171623 661.01534145 -620.39096339 656.17341199 -628.69335938 651.26513672 C-629.59505859 650.73235107 -630.49675781 650.19956543 -631.42578125 649.65063477 C-635.40511203 647.29369744 -639.37458695 644.92334555 -643.31835938 642.50732422 C-649.42321779 638.77181817 -655.48213613 635.30918939 -662.05273438 632.43701172 C-686.16046589 621.85001851 -686.16046589 621.85001851 -690.10742188 612.54248047 C-693.61367435 600.8932024 -693.1272613 588.66454446 -693.04345703 576.62963867 C-693.03489971 574.84163496 -693.0268123 573.05362896 -693.01915073 571.26562119 C-693.00145744 567.37535676 -692.98041795 563.48512948 -692.95683861 559.59489632 C-692.91815873 553.20744715 -692.88697257 546.81997279 -692.85652161 540.43247986 C-692.81107841 531.05730431 -692.76213564 521.68215248 -692.71090698 512.30700684 C-692.62923901 497.33116254 -692.55492948 482.35528687 -692.48266602 467.37939453 C-692.47341919 465.46325848 -692.47341919 465.46325848 -692.46398556 463.5084126 C-692.43543103 457.58355072 -692.40696835 451.65868841 -692.37862447 445.73382551 C-692.34935942 439.61730682 -692.31985443 433.50078939 -692.29000282 427.38427353 C-692.06199056 380.6350449 -691.87641138 333.8857274 -691.71289062 287.13623047 C-691.71000743 286.31219704 -691.70712423 285.48816361 -691.70415366 284.63915947 C-691.6323188 264.09375934 -691.56211734 243.54835374 -691.49275398 223.00294513 C-691.45427445 211.60544762 -691.41550132 200.20795114 -691.37652588 188.81045532 C-691.36551617 185.59005261 -691.35450753 182.36964989 -691.34349918 179.14924717 C-691.34079924 178.35943002 -691.33809929 177.56961287 -691.33531753 176.75586187 C-691.22410302 144.21729147 -691.11437511 111.67871623 -691.00585938 79.14013672 C-688.78336743 77.86606333 -686.56040048 76.59283124 -684.3371582 75.32006836 C-683.40217876 74.78390774 -683.40217876 74.78390774 -682.44831085 74.23691559 C-678.0760066 71.7350143 -673.66731667 69.31172572 -669.22607422 66.93408203 C-659.2142155 61.57203392 -649.44922147 55.87156525 -639.73803711 49.98510742 C-631.97700084 45.29193242 -624.14253732 40.74345039 -616.25585938 36.26513672 C-606.25625813 30.58437349 -596.29940129 24.83638914 -586.38085938 19.01513672 C-585.47551453 18.48415375 -585.47551453 18.48415375 -584.55187988 17.94244385 C-572.38250995 10.90849128 -572.38250995 10.90849128 -560.46264648 3.46826172 C-556.85290045 1.51685375 -553.81198169 2.10266003 -550.00585938 3.14013672 C-547.06094925 4.29246189 -544.33343993 5.73584301 -541.56835938 7.26513672 C-540.75761963 7.70253174 -539.94687988 8.13992676 -539.11157227 8.59057617 C-531.1925367 12.92107781 -523.46957911 17.5826677 -515.75341797 22.26220703 C-508.29217669 26.78697248 -500.76838552 31.18392159 -493.19335938 35.51513672 C-482.64369014 41.55632505 -472.23079901 47.79782301 -461.86987305 54.15527344 C-456.17414657 57.64321293 -450.44833967 61.0492532 -444.63476562 64.33544922 C-429.35152506 72.9935316 -417.72646501 83.21318482 -407.00585938 97.14013672 C-406.09916612 98.29185502 -405.19156541 99.44285933 -404.28320312 100.59326172 C-403.35693913 101.77517522 -402.4311526 102.95746307 -401.50585938 104.14013672 C-401.05992432 104.70442383 -400.61398926 105.26871094 -400.15454102 105.85009766 C-397.00585938 109.91139581 -397.00585938 109.91139581 -397.00585938 112.14013672 C-396.34585937 112.14013672 -395.68585938 112.14013672 -395.00585938 112.14013672 C-393.22851563 114.05419922 -393.22851563 114.05419922 -391.06835938 116.76513672 C-390.26140625 117.77189453 -389.45445312 118.77865234 -388.62304688 119.81591797 C-386.8695934 122.0357716 -385.1271542 124.26401459 -383.38867188 126.49560547 C-377.2878521 134.32422913 -370.98695843 141.92348745 -364.48779297 149.42431641 C-362.08095916 152.21100966 -359.69757483 155.01735554 -357.31835938 157.82763672 C-356.86332031 158.36453125 -356.40828125 158.90142578 -355.93945312 159.45458984 C-353.08303843 162.83523093 -350.28459897 166.25759189 -347.50585938 169.70263672 C-343.86199291 174.18589386 -340.02454242 178.43316125 -336.09179688 182.65991211 C-332.31052296 186.7468302 -328.80884531 191.02071134 -325.31835938 195.35888672 C-322.80613049 198.38035118 -320.1815977 201.26429569 -317.50585938 204.14013672 C-312.42145536 209.61287156 -307.68217315 215.31363446 -303.00585938 221.14013672 C-301.52884004 222.95438702 -300.04965491 224.76687615 -298.56835938 226.57763672 C-297.47394531 227.91568359 -297.47394531 227.91568359 -296.35742188 229.28076172 C-292.26618275 234.25549102 -288.13688256 239.19843257 -284.00585938 244.14013672 C-279.27361735 240.2948104 -275.19171081 236.27884436 -271.31835938 231.57763672 C-267.25724573 226.7437449 -263.12032225 222.01129972 -258.81835938 217.39013672 C-258.31820313 216.85203369 -257.81804687 216.31393066 -257.30273438 215.75952148 C-256.32778929 214.71129517 -255.35253839 213.66335318 -254.37695312 212.61572266 C-248.44415373 206.23077972 -242.7921599 199.69188035 -237.31445312 192.91357422 C-235.000155 190.13328375 -232.59151364 187.47876817 -230.13085938 184.82763672 C-225.88892218 180.21854576 -222.01037654 175.42238363 -218.18212891 170.47290039 C-215.05409113 166.43960914 -211.82802269 162.51471382 -208.50585938 158.64013672 C-204.72370886 154.22460529 -201.07313259 149.73097413 -197.50585938 145.14013672 C-193.93856534 140.54927252 -190.28752291 136.05610484 -186.50585938 131.64013672 C-182.29369373 126.71749428 -178.24679961 121.69078743 -174.26928711 116.57714844 C-170.76834829 112.0841432 -167.18107885 107.66854034 -163.56835938 103.26513672 C-158.58990744 97.1945036 -153.81960704 90.9989676 -149.22680664 84.63085938 C-143.34715991 76.60334384 -137.18680902 71.21552235 -128.44335938 66.45263672 C-127.07014526 65.6857251 -127.07014526 65.6857251 -125.66918945 64.90332031 C-118.29286411 60.79831139 -110.86111183 56.79234813 -103.43774414 52.77319336 C-95.66434275 48.54572124 -88.01920251 44.11692485 -80.39160156 39.6328125 C-74.97173574 36.44848928 -69.53885329 33.29049515 -64.07226562 30.18701172 C-63.48648743 29.85443863 -62.90070923 29.52186554 -62.29718018 29.17921448 C-61.10754245 28.50397477 -59.91788582 27.82876835 -58.72821045 27.15359497 C-44.87691207 19.288674 -31.14120008 11.22347686 -17.69921875 2.67285156 C-16.99087891 2.22248535 -16.28253906 1.77211914 -15.55273438 1.30810547 C-14.62992676 0.71485474 -14.62992676 0.71485474 -13.68847656 0.10961914 C-9.05835162 -2.55814437 -4.84116805 -2.07529137 0 0 Z " fill="#FB4846" transform="translate(1087.005859375,458.85986328125)"/>
<path d="M0 0 C0.58470547 94.80925091 1.09417598 189.618805 1.51238817 284.42894197 C1.5503926 293.02154177 1.58970877 301.61413488 1.62960815 310.20672607 C1.80598794 348.39231927 1.80598794 348.39231927 1.86112976 366.45703125 C1.86636527 368.16999433 1.86636527 368.16999433 1.87170655 369.91756272 C1.88571669 374.54929636 1.89956074 379.18103025 1.91266358 383.81276655 C1.95386068 398.26465463 2.01770126 412.71619582 2.11229566 427.16782307 C2.18783959 438.72585314 2.24569972 450.28386212 2.28842467 461.84206063 C2.31331533 468.35690181 2.34702552 474.87142402 2.40234566 481.3860836 C2.45362021 487.44154195 2.48161071 493.49665747 2.49167752 499.55232024 C2.49958116 501.77657832 2.516145 504.00082482 2.54195285 506.22494721 C2.5760228 509.26875516 2.57910968 512.31109673 2.5745697 515.35505676 C2.59186003 516.23684323 2.60915035 517.11862971 2.62696463 518.02713698 C2.5700847 524.25262616 1.09340159 527.2904467 -3 532 C-5.46582031 533.84179688 -5.46582031 533.84179688 -8.078125 535.21875 C-9.55236938 536.01623657 -9.55236938 536.01623657 -11.05639648 536.82983398 C-12.11028564 537.38098877 -13.1641748 537.93214355 -14.25 538.5 C-16.51879412 539.72702282 -18.78567066 540.95759681 -21.05078125 542.19140625 C-22.20787598 542.81934082 -23.3649707 543.44727539 -24.55712891 544.09423828 C-29.93457197 547.07086008 -35.18567814 550.2459375 -40.4375 553.4375 C-49.10816042 558.68866786 -57.83404907 563.82768542 -66.625 568.875 C-74.4034469 573.34250449 -82.15109731 577.84192744 -89.82421875 582.48828125 C-93.37567556 584.63381941 -96.94644414 586.74623145 -100.51953125 588.85546875 C-101.10943344 589.20393356 -101.69933563 589.55239838 -102.30711365 589.91142273 C-105.26921149 591.6610281 -108.23229653 593.40889875 -111.19702148 595.15405273 C-112.85519897 596.13353882 -112.85519897 596.13353882 -114.546875 597.1328125 C-115.63291016 597.77379883 -116.71894531 598.41478516 -117.83789062 599.07519531 C-120.87614014 600.92460538 -123.81473882 602.88247525 -126.765625 604.8671875 C-131.3285696 607.74284703 -135.46566279 610.26681506 -141 610 C-144.85630813 608.80087862 -148.19666839 606.94637196 -151.6875 604.9375 C-152.68934326 604.38747314 -153.69118652 603.83744629 -154.72338867 603.27075195 C-157.83576782 601.54696898 -160.92086209 599.7823985 -164 598 C-165.38106934 597.20239258 -165.38106934 597.20239258 -166.79003906 596.38867188 C-171.30928229 593.76353531 -175.80326504 591.09849807 -180.28515625 588.41015625 C-186.40056797 584.74601159 -192.57084808 581.18031801 -198.75 577.625 C-199.82830078 577.00383301 -200.90660156 576.38266602 -202.01757812 575.74267578 C-207.08525465 572.82462643 -212.15524635 569.91062281 -217.22657776 566.99893188 C-220.08930351 565.35476149 -222.95085865 563.70855682 -225.8125 562.0625 C-226.90876709 561.43311523 -228.00503418 560.80373047 -229.13452148 560.15527344 C-234.6051573 557.00325926 -239.9965454 553.78053341 -245.3125 550.375 C-250.34398402 547.20297747 -255.47171156 545.21926507 -261.05078125 543.20703125 C-267.73744935 540.47036841 -272.90930171 535.89541812 -277 530 C-280.11399792 521.43650571 -280.14881626 512.92623783 -280.1328125 503.9296875 C-280.13413177 502.75075928 -280.13545105 501.57183105 -280.1368103 500.35717773 C-280.13872313 496.52975824 -280.1324 492.70241202 -280.125 488.875 C-280.12367065 486.9308017 -280.12367065 486.9308017 -280.12231445 484.94732666 C-280.10514569 463.61810906 -279.79020309 442.31446746 -279 421 C-286.45335484 428.87233041 -293.79494437 436.79898265 -300.80297852 445.07202148 C-303.70714032 448.49960496 -306.66024569 451.8669477 -309.6875 455.1875 C-312.71712868 458.52227114 -315.60608092 461.93287639 -318.4375 465.4375 C-322.35102458 470.27305917 -326.46503599 474.87987048 -330.671875 479.4609375 C-334.80868687 483.97256119 -338.80610823 488.59985491 -342.78125 493.25390625 C-343.8124583 494.46097313 -344.84370948 495.66800337 -345.875 496.875 C-346.39473389 497.48359863 -346.91446777 498.09219727 -347.44995117 498.71923828 C-350.47905595 502.25642957 -353.55156303 505.74401054 -356.6875 509.1875 C-359.78968008 512.59821516 -362.73238274 516.0973376 -365.625 519.6875 C-368.14822766 522.80983025 -370.67545332 525.77365218 -373.5625 528.5625 C-376.95294311 531.84457278 -379.80310673 535.43395955 -382.7109375 539.14453125 C-385.82155258 543.02483777 -389.08583684 546.76396684 -392.34838867 550.51660156 C-395.01367772 553.60569387 -397.59569252 556.7311405 -400.07421875 559.97265625 C-400.81224731 560.93703613 -400.81224731 560.93703613 -401.56518555 561.92089844 C-402.50165052 563.15549613 -403.42935485 564.39680238 -404.34692383 565.64550781 C-406.73572438 568.79772066 -408.10960977 570.29979132 -412 571 C-412.02334592 548.9038379 -412.04098752 526.80767782 -412.05181217 504.71150589 C-412.05697152 494.45219765 -412.06400737 484.19289707 -412.07543945 473.93359375 C-412.08539729 464.9930479 -412.09185606 456.0525076 -412.09408849 447.11195636 C-412.09539372 442.3767063 -412.09846778 437.6414721 -412.10573006 432.90622711 C-412.11250759 428.45103753 -412.11461341 423.99587037 -412.11310768 419.54067612 C-412.11338323 417.90399682 -412.11537809 416.26731678 -412.11920547 414.63064194 C-412.12416975 412.39869208 -412.12298814 410.16682726 -412.12025452 407.93487549 C-412.12117631 406.6849242 -412.1220981 405.43497292 -412.12304783 404.14714432 C-411.88450078 398.04592327 -410.4803517 396.2105266 -406 392 C-399.32759384 385.05037352 -393.02850799 377.94431754 -387.15039062 370.30957031 C-383.37086611 365.41570966 -379.39457969 360.72082175 -375.34643555 356.0480957 C-372.27255383 352.49653307 -369.26658061 348.90278489 -366.3125 345.25 C-362.76254679 340.87492253 -359.04436179 336.69450808 -355.25 332.53125 C-352.92137947 329.9115519 -350.70437053 327.2248469 -348.5 324.5 C-345.5918662 320.9052235 -342.61458668 317.41739372 -339.5 314 C-335.65760121 309.77933397 -332.03912992 305.41716722 -328.4453125 300.984375 C-322.10739208 293.24927723 -315.57784932 285.67664577 -308.8125 278.3125 C-304.70487853 273.83565412 -300.83325567 269.20969408 -297.015625 264.484375 C-295.37315111 262.45993043 -293.70706433 260.46968961 -292 258.5 C-289.58709688 255.71234081 -287.25861559 252.86453466 -284.9375 250 C-280.18740984 244.17396659 -275.26964824 238.50319509 -270.33203125 232.8359375 C-267.65777826 229.76477969 -265.01027538 226.67206285 -262.37133789 223.57055664 C-257.64900037 218.02225309 -252.82588428 212.59925255 -247.8671875 207.26147461 C-244.36226595 203.46171682 -241.14239949 199.49345108 -237.95703125 195.42578125 C-235.19969391 192.00800383 -232.23304078 188.79711976 -229.2734375 185.5546875 C-226.99310476 182.99225174 -224.83484049 180.36198544 -222.6875 177.6875 C-218.79614512 172.87254256 -214.66870856 168.34912829 -210.43994141 163.83447266 C-207.34263774 160.50897767 -204.40400241 157.11307457 -201.5625 153.5625 C-197.53488871 148.54077775 -193.20654144 143.87417239 -188.79711914 139.19165039 C-185.55436739 135.72921156 -182.46563219 132.20704024 -179.5 128.5 C-176.01437264 124.1429658 -172.32206333 120.05878467 -168.5 116 C-163.87379473 111.08693945 -159.52729122 106.04878041 -155.30859375 100.77734375 C-152.16427016 96.99457882 -148.81506293 93.42236568 -145.43896484 89.84667969 C-142.24612465 86.439766 -139.37663677 82.92074933 -136.5625 79.1875 C-133.43022586 75.31273324 -130.4487952 72.77336499 -126.1640625 70.2421875 C-125.60099899 69.90598892 -125.03793549 69.56979034 -124.45780945 69.22340393 C-123.25676322 68.50746071 -122.05336561 67.79544936 -120.84780884 67.08712769 C-119.01380107 66.00811963 -117.18792058 64.91653946 -115.36401367 63.82055664 C-111.52102212 61.51349161 -107.66790729 59.22374248 -103.8125 56.9375 C-103.1209079 56.52714508 -102.4293158 56.11679016 -101.71676636 55.69400024 C-80.91745408 43.35844131 -59.9511977 31.33165648 -38.82128906 19.57080078 C-36.19962614 18.11114526 -33.57996626 16.6479688 -30.9609375 15.18359375 C-26.64840247 12.77485116 -22.32712012 10.38242766 -18 8 C-17.28505371 7.60490234 -16.57010742 7.20980469 -15.83349609 6.80273438 C-13.7470151 5.65293515 -11.65572897 4.51245848 -9.5625 3.375 C-8.94101074 3.03162598 -8.31952148 2.68825195 -7.67919922 2.33447266 C-4.89060595 0.83244026 -3.22161845 0 0 0 Z " fill="#1F282D" transform="translate(1215,541)"/>
<path d="M0 0 C2.28580611 1.17526939 4.51559395 2.42205054 6.74414062 3.70263672 C8.02973877 4.42531738 8.02973877 4.42531738 9.34130859 5.16259766 C17.82572034 9.96657055 26.2025534 14.95810923 34.5769043 19.95068359 C42.36897758 24.59551781 50.19423746 29.17738425 58.05664062 33.70263672 C59.12188965 34.31574707 60.18713867 34.92885742 61.28466797 35.56054688 C64.52056539 37.42144479 67.7573081 39.2808659 70.99414062 41.14013672 C75.41197081 43.67978626 79.82864328 46.2214334 84.24414062 48.76513672 C85.85216553 49.69132812 85.85216553 49.69132812 87.49267578 50.63623047 C95.5411185 55.28083476 103.55097299 59.98819876 111.52832031 64.75390625 C116.84115885 67.91601285 122.21711918 70.90524487 127.69140625 73.7800293 C130.56448985 75.47701283 132.26979396 77.29121614 133.99414062 80.14013672 C134.3485405 80.67134764 134.70294038 81.20255856 135.06807965 81.74986678 C136.46464856 85.35457184 136.26894194 88.94816756 136.24861622 92.75945568 C136.25342594 94.08433079 136.25342594 94.08433079 136.25833282 95.43597105 C136.26668095 98.41662277 136.26069172 101.39707606 136.25483704 104.37773132 C136.25785554 106.52791645 136.2617435 108.67810051 136.2664296 110.82828265 C136.27675747 116.75350962 136.27451563 122.67867641 136.27024901 128.60390842 C136.26779039 134.98785302 136.27678524 141.37178281 136.2842865 147.75572205 C136.29706037 160.26986596 136.29882964 172.78398781 136.29648624 185.29813709 C136.29465487 195.46816261 136.2964099 205.63818183 136.30071068 215.80820656 C136.30131308 217.26840666 136.30191427 218.72860676 136.30251428 220.18880687 C136.30342152 222.38911264 136.30433019 224.58941842 136.30524663 226.78972419 C136.31367936 247.25428251 136.31800975 267.71883844 136.31383991 288.18339825 C136.31368354 288.95526027 136.31352716 289.7271223 136.31336605 290.52237408 C136.31256024 294.43461784 136.31171447 298.3468616 136.31085274 302.25910535 C136.31068166 303.03610972 136.31051057 303.81311409 136.3103343 304.61366404 C136.30998764 306.18495769 136.30963911 307.75625133 136.30928871 309.32754497 C136.30393274 333.77119334 136.31185708 358.21480563 136.33032227 382.65844727 C136.35103726 410.11257588 136.36176578 437.56668214 136.35774678 465.02081901 C136.35735143 467.94820869 136.35698988 470.87559837 136.3566494 473.80298805 C136.35655867 474.52379979 136.35646794 475.24461154 136.35637445 475.98726606 C136.35520824 486.87103861 136.36185874 497.75478861 136.37246132 508.63855553 C136.38450868 521.01815886 136.38579936 533.397703 136.37367115 545.77730813 C136.36777001 552.09529174 136.36671713 558.41317817 136.37867355 564.7311554 C136.38949034 570.51410076 136.38647908 576.29686731 136.37241187 582.07980416 C136.3697533 584.17269754 136.37216768 586.26560474 136.38014773 588.35848459 C136.39024172 591.2030764 136.38184185 594.04704519 136.36887074 596.89161205 C136.37618008 597.70429386 136.38348943 598.51697567 136.39102027 599.3542842 C136.33321151 605.46994415 135.54603407 612.32425429 131.29492188 617.01513672 C130.63878906 617.38638672 129.98265625 617.75763672 129.30664062 618.14013672 C128.4996875 618.61451172 127.69273437 619.08888672 126.86132812 619.57763672 C125.44207031 620.35107422 125.44207031 620.35107422 123.99414062 621.14013672 C122.35832031 622.06826172 122.35832031 622.06826172 120.68945312 623.01513672 C118.04099739 624.51657874 115.38452608 626.0028547 112.72460938 627.48388672 C97.61465382 635.93232554 82.77853992 644.84512929 68.00527954 653.86495972 C59.73292421 658.91224828 51.39989714 663.82888934 42.96337891 668.59790039 C35.48266142 672.83474766 28.07630968 677.1930739 20.68164062 681.57763672 C20.10469452 681.91924835 19.52774841 682.26085999 18.93331909 682.61282349 C10.20277064 687.78401325 10.20277064 687.78401325 1.66430664 693.26342773 C-1.30311537 694.82109656 -3.77572399 694.63708062 -7.00585938 694.14013672 C-9.44335938 692.64013672 -9.44335938 692.64013672 -11.00585938 691.14013672 C-10.45406006 690.98448242 -9.90226074 690.82882812 -9.33374023 690.66845703 C-3.4082238 688.86495696 1.3071372 686.32287527 6.43164062 682.89013672 C14.22701941 677.81556298 22.17017474 673.07047634 30.24414062 668.45263672 C38.12202759 663.94182949 45.96156883 659.39400436 53.72851562 654.69482422 C60.43592206 650.65752054 67.20767438 646.72738693 73.96459961 642.77374268 C83.15514561 637.396114 92.33260133 631.99760238 101.48022461 626.54711914 C105.53744171 624.13942621 109.6074627 621.78346709 113.76367188 619.55029297 C114.50319092 619.15003906 115.24270996 618.74978516 116.00463867 618.33740234 C117.3544421 617.61301874 118.71086791 616.90075463 120.07543945 616.20458984 C124.48522766 613.83804136 126.66063535 611.54823494 128.99414062 607.14013672 C129.54401447 603.95506142 129.50571102 600.83419061 129.45617676 597.60871887 C129.45755126 596.65586071 129.45892577 595.70300255 129.46034193 594.72126991 C129.46007181 591.53477636 129.43116613 588.34919535 129.40234375 585.1628418 C129.39630672 582.88383812 129.39203639 580.60482917 129.3894043 578.32581902 C129.3772179 572.13171357 129.34019356 565.93797329 129.29885292 559.74400306 C129.25930525 553.17555986 129.24268766 546.607057 129.22351074 540.03852844 C129.18710905 528.42751862 129.13253826 516.81667363 129.06877035 505.20578463 C128.99702936 492.12011335 128.94418186 479.03441237 128.89730918 465.9486289 C128.82589308 446.16391729 128.73815587 426.37931457 128.63842773 406.59472656 C128.63252935 405.42410785 128.62663097 404.25348914 128.62055385 403.04739714 C128.60858847 400.67388193 128.59662282 398.30036672 128.58465689 395.92685151 C128.45174337 369.54617005 128.33000573 343.16544128 128.21679688 316.78466797 C128.20867505 314.895511 128.20867505 314.895511 128.20038915 312.96818924 C127.9753269 260.31713433 127.90749547 207.66662605 127.93164062 155.01513672 C127.93206486 154.06424274 127.93248909 153.11334876 127.93292618 152.13363981 C127.9435399 128.80246096 127.96279934 105.47129715 127.99414062 82.14013672 C125.43109158 83.42012624 122.86820881 84.70044682 120.30541992 85.98095703 C119.5840258 86.3411795 118.86263168 86.70140198 118.11937714 87.07254028 C103.42805412 94.41440247 89.06905314 102.26526576 74.85302734 110.48779297 C71.87293967 112.21018694 68.888981 113.92572135 65.90429688 115.64013672 C33.74616559 134.04773461 33.74616559 134.04773461 1.99414062 153.14013672 C0.96417969 153.77435547 -0.06578125 154.40857422 -1.12695312 155.06201172 C-4.06270728 157.18117212 -5.93529741 159.21479612 -8.13085938 162.07763672 C-11.58924507 166.45010753 -15.18849643 170.5785735 -19.00585938 174.64013672 C-22.63604963 178.51415844 -26.12340476 182.42921636 -29.44335938 186.57763672 C-33.47097067 191.59935897 -37.79931794 196.26596433 -42.20874023 200.94848633 C-45.45149199 204.41092516 -48.54022718 207.93309648 -51.50585938 211.64013672 C-54.99148673 215.99717092 -58.68379605 220.08135205 -62.50585938 224.14013672 C-67.13206465 229.05319726 -71.47856815 234.09135631 -75.69726562 239.36279297 C-78.35865503 242.56456601 -81.16049603 245.60247097 -84.00585938 248.64013672 C-88.46337894 253.39967141 -92.64194316 258.30159622 -96.72460938 263.39013672 C-99.24294452 266.42593799 -101.88121502 269.31702317 -104.56835938 272.20263672 C-107.86256654 275.74115247 -111.02521361 279.3305179 -114.00585938 283.14013672 C-117.41709764 287.50010382 -121.09834192 291.55888447 -124.86694336 295.60668945 C-128.68752117 299.733706 -132.23326852 304.04388748 -135.75976562 308.42529297 C-138.09416527 311.24687167 -140.52576536 313.94604383 -143.00585938 316.64013672 C-148.63611484 322.76717943 -153.87387774 329.17376616 -159.02929688 335.70263672 C-163.79858241 341.73493463 -168.83036794 347.45465161 -174.00585938 353.14013672 C-182.79846763 363.02173774 -191.32866844 373.14168137 -199.86254883 383.24658203 C-203.20708608 387.20383611 -206.57011767 391.14482925 -209.94335938 395.07763672 C-210.44005127 395.65682861 -210.93674316 396.23602051 -211.44848633 396.83276367 C-214.00096356 399.80769713 -216.55655919 402.77990752 -219.11523438 405.74951172 C-223.70421848 411.08134306 -228.26463772 416.42343342 -232.69335938 421.89013672 C-235.54044438 425.39897662 -238.46398489 428.79880309 -241.50585938 432.14013672 C-246.75136595 437.91019395 -251.63711355 443.95305012 -256.5234375 450.02636719 C-262.5544076 457.51790616 -268.5686034 464.9651365 -275.10351562 472.02685547 C-277.17178347 474.32445897 -279.09535428 476.71051888 -281.00585938 479.14013672 C-285.96135071 477.66266615 -288.75487871 474.81680347 -292.25585938 471.20263672 C-293.11618774 470.3275647 -293.11618774 470.3275647 -293.99389648 469.43481445 C-298.14670424 465.15748647 -301.98479384 460.69298973 -305.69726562 456.02685547 C-312.34073701 447.71970598 -319.2549942 439.75455546 -326.87304688 432.32763672 C-329.99960492 429.12091052 -332.75768434 425.6522574 -335.55664062 422.15966797 C-338.31110891 418.76380834 -341.14863057 415.449453 -344.00585938 412.14013672 C-347.54227711 408.03811351 -351.03450422 403.91210373 -354.44335938 399.70263672 C-358.54371852 394.65318902 -362.78955287 389.74240655 -367.05932617 384.83666992 C-374.74714914 376.00010469 -382.2854481 367.05083926 -389.68164062 357.96826172 C-392.32489469 354.7519324 -395.0032754 351.56730475 -397.69335938 348.39013672 C-398.1604834 347.83720947 -398.62760742 347.28428223 -399.10888672 346.71459961 C-401.5775986 343.7992313 -404.0866067 340.92695566 -406.63085938 338.07763672 C-408.81123866 335.38085181 -409.38367503 334.35475584 -410.00585938 331.14013672 C-409.03648437 330.95451172 -408.06710937 330.76888672 -407.06835938 330.57763672 C-403.70909166 329.62570558 -401.52050794 328.14079711 -398.82788086 325.93579102 C-394.31013179 322.33537365 -389.62985335 319.12216186 -384.79101562 315.97216797 C-383.93640244 315.41123947 -383.08178925 314.85031097 -382.20127869 314.27238464 C-379.4926394 312.49554279 -376.78065672 310.72388839 -374.06835938 308.95263672 C-370.51676888 306.62704815 -366.96645019 304.29952077 -363.41601562 301.97216797 C-362.10565086 301.11396202 -362.10565086 301.11396202 -360.76881409 300.23841858 C-352.14809594 294.58836854 -343.57226711 288.87207624 -335.00585938 283.14013672 C-333.87951736 282.38706366 -332.75313705 281.63404787 -331.62670898 280.88110352 C-329.66814868 279.57187339 -327.70964838 278.26255351 -325.7512207 276.953125 C-317.62715698 271.52672229 -309.49696129 266.10909411 -301.31835938 260.76513672 C-300.64216553 260.31904053 -299.96597168 259.87294434 -299.26928711 259.41333008 C-296.61178942 257.6873053 -294.08536705 256.17172344 -291.13476562 254.99951172 C-288.77344098 254.30007026 -288.77344098 254.30007026 -287.63085938 251.76513672 C-286.9557075 248.92949884 -287.03940883 247.83684551 -288.00585938 245.14013672 C-289.31529217 243.5425422 -289.31529217 243.5425422 -291.00585938 242.07763672 C-294.8793868 238.36944278 -298.18870458 234.3404448 -301.54882812 230.16748047 C-304.17633855 226.93008686 -306.86373926 223.75049855 -309.56835938 220.57763672 C-312.76982194 216.81980401 -315.90359775 213.03128386 -318.94335938 209.14013672 C-322.57006967 204.55472636 -326.49885627 200.31036334 -330.49365234 196.04882812 C-334.59637045 191.64867926 -338.41605001 187.08898497 -342.16601562 182.38232422 C-343.70174209 180.51075948 -345.29318527 178.84296787 -347.00585938 177.14013672 C-350.00585938 172.69569227 -350.00585938 172.69569227 -350.00585938 169.14013672 C-350.99585938 168.81013672 -351.98585938 168.48013672 -353.00585938 168.14013672 C-354.33919271 166.47347005 -355.67252604 164.80680339 -357.00585938 163.14013672 C-358.13865444 162.2074057 -359.28561875 161.29171781 -360.44335938 160.39013672 C-364.55830893 156.99198483 -366.70839511 152.88696372 -369.00585938 148.14013672 C-369.86691086 145.94580345 -369.86691086 145.94580345 -372.20507812 144.92529297 C-375.79413206 142.63770908 -378.12422373 139.83518641 -380.81835938 136.57763672 C-381.34896973 135.94704346 -381.87958008 135.3164502 -382.42626953 134.66674805 C-385.93182571 130.48426055 -389.36486115 126.24642108 -392.74804688 121.96435547 C-395.79297233 118.15556463 -398.90046763 114.39968103 -402.00585938 110.64013672 C-407.80243104 103.6173672 -413.55045009 96.56130468 -419.15820312 89.38623047 C-419.87105469 88.48001953 -420.58390625 87.57380859 -421.31835938 86.64013672 C-422.27162109 85.41810547 -422.27162109 85.41810547 -423.24414062 84.17138672 C-425.25765053 81.84982319 -426.89892366 80.28117486 -430.02929688 79.88232422 C-435.62150542 80.19816324 -439.34909269 81.70176881 -444.05664062 84.73388672 C-445.20841107 85.46509655 -446.36077065 86.19537907 -447.51367188 86.92480469 C-448.38608521 87.48116608 -448.38608521 87.48116608 -449.27612305 88.04876709 C-451.93384532 89.72564542 -454.6345711 91.32715416 -457.33789062 92.92919922 C-458.39049072 93.55318604 -459.44309082 94.17717285 -460.52758789 94.82006836 C-461.61354248 95.46194092 -462.69949707 96.10381348 -463.81835938 96.76513672 C-464.39512421 97.10640594 -464.97188904 97.44767517 -465.56613159 97.79928589 C-557.40874077 152.14013672 -557.40874077 152.14013672 -562.00585938 152.14013672 C-562.33585938 152.80013672 -562.66585937 153.46013672 -563.00585938 154.14013672 C-565.90248352 152.53739497 -568.79801492 150.93268889 -571.69335938 149.32763672 C-572.91829102 148.64991211 -572.91829102 148.64991211 -574.16796875 147.95849609 C-578.15493201 145.74710352 -582.10145321 143.49496054 -586.00585938 141.14013672 C-587.79255146 140.15192207 -589.58437842 139.17294233 -591.38085938 138.20263672 C-597.47292267 134.88855429 -603.42740319 131.52728994 -609.25585938 127.76513672 C-613.84231778 124.82252524 -618.52104023 122.17089354 -623.32617188 119.60498047 C-625.91683361 118.18880241 -628.42879624 116.68663322 -630.94335938 115.14013672 C-635.57876569 112.318907 -640.36282008 109.9003814 -645.24414062 107.53466797 C-647.9196833 106.18365137 -650.45489063 104.71186263 -653.00585938 103.14013672 C-658.63741188 99.72493761 -664.29815829 96.36421934 -670.00585938 93.07763672 C-671.09898437 92.44728516 -672.19210937 91.81693359 -673.31835938 91.16748047 C-677.81260178 88.69659931 -682.41861894 86.43375694 -687.00585938 84.14013672 C-687.00585938 200.30013672 -687.00585938 316.46013672 -687.00585938 436.14013672 C-687.66585938 435.81013672 -688.32585937 435.48013672 -689.00585938 435.14013672 C-689.33585937 333.50013672 -689.66585938 231.86013672 -690.00585938 127.14013672 C-690.33585937 127.14013672 -690.66585938 127.14013672 -691.00585938 127.14013672 C-691.00585938 111.30013672 -691.00585938 95.46013672 -691.00585938 79.14013672 C-675.86640137 70.48901786 -675.86640137 70.48901786 -669.22607422 66.93408203 C-659.2142155 61.57203392 -649.44922147 55.87156525 -639.73803711 49.98510742 C-631.97700084 45.29193242 -624.14253732 40.74345039 -616.25585938 36.26513672 C-606.25625813 30.58437349 -596.29940129 24.83638914 -586.38085938 19.01513672 C-585.47551453 18.48415375 -585.47551453 18.48415375 -584.55187988 17.94244385 C-572.38250995 10.90849128 -572.38250995 10.90849128 -560.46264648 3.46826172 C-556.85290045 1.51685375 -553.81198169 2.10266003 -550.00585938 3.14013672 C-547.06094925 4.29246189 -544.33343993 5.73584301 -541.56835938 7.26513672 C-540.75761963 7.70253174 -539.94687988 8.13992676 -539.11157227 8.59057617 C-531.1925367 12.92107781 -523.46957911 17.5826677 -515.75341797 22.26220703 C-508.29217669 26.78697248 -500.76838552 31.18392159 -493.19335938 35.51513672 C-482.64369014 41.55632505 -472.23079901 47.79782301 -461.86987305 54.15527344 C-456.17414657 57.64321293 -450.44833967 61.0492532 -444.63476562 64.33544922 C-429.35152506 72.9935316 -417.72646501 83.21318482 -407.00585938 97.14013672 C-406.09916612 98.29185502 -405.19156541 99.44285933 -404.28320312 100.59326172 C-403.35693913 101.77517522 -402.4311526 102.95746307 -401.50585938 104.14013672 C-401.05992432 104.70442383 -400.61398926 105.26871094 -400.15454102 105.85009766 C-397.00585938 109.91139581 -397.00585938 109.91139581 -397.00585938 112.14013672 C-396.34585937 112.14013672 -395.68585938 112.14013672 -395.00585938 112.14013672 C-393.22851563 114.05419922 -393.22851563 114.05419922 -391.06835938 116.76513672 C-390.26140625 117.77189453 -389.45445312 118.77865234 -388.62304688 119.81591797 C-386.8695934 122.0357716 -385.1271542 124.26401459 -383.38867188 126.49560547 C-377.2878521 134.32422913 -370.98695843 141.92348745 -364.48779297 149.42431641 C-362.08095916 152.21100966 -359.69757483 155.01735554 -357.31835938 157.82763672 C-356.86332031 158.36453125 -356.40828125 158.90142578 -355.93945312 159.45458984 C-353.08303843 162.83523093 -350.28459897 166.25759189 -347.50585938 169.70263672 C-343.86199291 174.18589386 -340.02454242 178.43316125 -336.09179688 182.65991211 C-332.31052296 186.7468302 -328.80884531 191.02071134 -325.31835938 195.35888672 C-322.80613049 198.38035118 -320.1815977 201.26429569 -317.50585938 204.14013672 C-312.42145536 209.61287156 -307.68217315 215.31363446 -303.00585938 221.14013672 C-301.52884004 222.95438702 -300.04965491 224.76687615 -298.56835938 226.57763672 C-297.47394531 227.91568359 -297.47394531 227.91568359 -296.35742188 229.28076172 C-292.26618275 234.25549102 -288.13688256 239.19843257 -284.00585938 244.14013672 C-279.27361735 240.2948104 -275.19171081 236.27884436 -271.31835938 231.57763672 C-267.25724573 226.7437449 -263.12032225 222.01129972 -258.81835938 217.39013672 C-258.31820313 216.85203369 -257.81804687 216.31393066 -257.30273438 215.75952148 C-256.32778929 214.71129517 -255.35253839 213.66335318 -254.37695312 212.61572266 C-248.44415373 206.23077972 -242.7921599 199.69188035 -237.31445312 192.91357422 C-235.000155 190.13328375 -232.59151364 187.47876817 -230.13085938 184.82763672 C-225.88892218 180.21854576 -222.01037654 175.42238363 -218.18212891 170.47290039 C-215.05409113 166.43960914 -211.82802269 162.51471382 -208.50585938 158.64013672 C-204.72370886 154.22460529 -201.07313259 149.73097413 -197.50585938 145.14013672 C-193.93856534 140.54927252 -190.28752291 136.05610484 -186.50585938 131.64013672 C-182.29369373 126.71749428 -178.24679961 121.69078743 -174.26928711 116.57714844 C-170.76834829 112.0841432 -167.18107885 107.66854034 -163.56835938 103.26513672 C-158.58990744 97.1945036 -153.81960704 90.9989676 -149.22680664 84.63085938 C-143.34715991 76.60334384 -137.18680902 71.21552235 -128.44335938 66.45263672 C-127.07014526 65.6857251 -127.07014526 65.6857251 -125.66918945 64.90332031 C-118.29286411 60.79831139 -110.86111183 56.79234813 -103.43774414 52.77319336 C-95.66434275 48.54572124 -88.01920251 44.11692485 -80.39160156 39.6328125 C-74.97173574 36.44848928 -69.53885329 33.29049515 -64.07226562 30.18701172 C-63.48648743 29.85443863 -62.90070923 29.52186554 -62.29718018 29.17921448 C-61.10754245 28.50397477 -59.91788582 27.82876835 -58.72821045 27.15359497 C-44.87691207 19.288674 -31.14120008 11.22347686 -17.69921875 2.67285156 C-16.99087891 2.22248535 -16.28253906 1.77211914 -15.55273438 1.30810547 C-14.62992676 0.71485474 -14.62992676 0.71485474 -13.68847656 0.10961914 C-9.05835162 -2.55814437 -4.84116805 -2.07529137 0 0 Z " fill="#FB4846" transform="translate(1087.005859375,458.85986328125)"/>
<path d="M0 0 C4.97210205 3.02000656 8.417341 7.59812133 11.859375 12.1875 C14.62010212 15.81473271 17.49426333 19.34277619 20.375 22.875 C20.94138184 23.57052979 21.50776367 24.26605957 22.09130859 24.98266602 C26.01924499 29.80362333 29.95319549 34.61967846 33.89453125 39.4296875 C35.33115201 41.18348428 36.76597173 42.93875754 38.19921875 44.6953125 C39.68474327 46.51527447 41.17300315 48.33300734 42.6640625 50.1484375 C44.33508191 52.18831069 45.99525178 54.2348862 47.6484375 56.2890625 C48.5362248 57.38039835 49.42424062 58.47154835 50.3125 59.5625 C51.11300781 60.55378906 51.91351562 61.54507813 52.73828125 62.56640625 C54.85912968 64.84842451 56.28436799 65.67416681 59 67 C60.0546875 68.69921875 60.0546875 68.69921875 60.875 70.6875 C64.09440613 77.62934447 69.10550396 82.28440317 75 87 C77.38270358 89.14202645 78.67280019 91.12548785 80.0625 94 C82.80351889 99.08693595 86.43275998 102.97751208 90.37890625 107.1640625 C92.94451719 109.93996942 95.32426768 112.80100924 97.6875 115.75 C100.12789504 118.77813416 102.55300498 121.63797265 105.375 124.3125 C109.22303854 128.02754182 112.40415659 132.24239724 115.67138672 136.4597168 C118.87111256 140.58241958 122.13213344 144.63832414 125.5 148.625 C125.94472656 149.15367676 126.38945313 149.68235352 126.84765625 150.22705078 C129.20977667 153.00356337 131.63370389 155.6876816 134.171875 158.3046875 C134.68685547 158.8414209 135.20183594 159.3781543 135.73242188 159.93115234 C136.72032165 160.95242711 137.72115191 161.96140074 138.73632812 162.95556641 C140.85769879 165.15027412 141.97521524 166.42640973 142.109375 169.53125 C139.69731313 174.89893699 134.93701466 177.86880021 130.01171875 180.765625 C128.85348135 181.45832791 127.6964517 182.15305351 126.54052734 182.84960938 C125.9526947 183.20337646 125.36486206 183.55714355 124.75921631 183.92163086 C119.67567968 187.03775081 114.76095775 190.42531181 109.8125 193.75 C108.17154162 194.84854955 106.53058211 195.94709743 104.88949585 197.04545593 C103.16695821 198.19870411 101.44505058 199.35288915 99.72314453 200.50708008 C89.86775086 207.10964248 79.98879163 213.67707582 70.1131134 220.24923706 C66.49070747 222.66011762 62.86885047 225.07182207 59.24707031 227.48364258 C57.40163637 228.71223711 55.55592909 229.94042116 53.70996094 231.16821289 C50.98298393 232.98212673 48.25702718 234.79756507 45.53125 236.61328125 C44.7206311 237.15197342 43.91001221 237.69066559 43.0748291 238.24568176 C38.04963415 241.59564994 33.08236522 245.01925502 28.14538574 248.49797058 C21.99803888 252.80185666 21.99803888 252.80185666 17 252 C14.40420163 250.20267259 12.33380553 247.99120721 10.1875 245.6875 C9.57366455 245.05030029 8.9598291 244.41310059 8.32739258 243.7565918 C3.24148915 238.41549132 -1.45389666 232.80555512 -6 227 C-11.58875371 220.05323137 -17.33824126 213.2684204 -23.19995117 206.55224609 C-26.39523314 202.88222318 -29.51469287 199.16954753 -32.5625 195.375 C-36.3677074 190.66911049 -40.42108442 186.25429966 -44.55444336 181.83984375 C-48.4987472 177.60441721 -52.16513938 173.19323795 -55.7890625 168.6796875 C-58.1093495 165.86746685 -60.53071134 163.18202737 -63 160.5 C-67.01652631 156.13179627 -70.79339071 151.62875707 -74.5234375 147.015625 C-82.00681987 137.9033676 -89.85421362 129.09643639 -97.8125 120.3984375 C-100.93093287 116.9792986 -103.97324671 113.50024539 -107 110 C-107.44102051 109.49597656 -107.88204102 108.99195313 -108.33642578 108.47265625 C-114.96021474 100.90261172 -121.23593768 93.25729698 -127 85 C-127.67417969 84.06542969 -128.34835937 83.13085938 -129.04296875 82.16796875 C-129.68878906 81.26691406 -130.33460938 80.36585938 -131 79.4375 C-131.5775 78.63183594 -132.155 77.82617188 -132.75 76.99609375 C-134 75 -134 75 -134 73 C-132.95211304 72.4423999 -132.95211304 72.4423999 -131.88305664 71.87353516 C-119.62914881 65.34254544 -107.41374687 58.7932362 -95.4921875 51.66796875 C-89.90994038 48.33423337 -84.26302871 45.11313292 -78.625 41.875 C-69.56861004 36.66333503 -60.54833507 31.39489747 -51.5625 26.0625 C-50.46164062 25.40926758 -49.36078125 24.75603516 -48.2265625 24.08300781 C-42.93668967 20.94079872 -37.65061237 17.79236751 -32.36894226 14.63639832 C-29.88666234 13.1539414 -27.40277679 11.67418796 -24.91867065 10.1947937 C-23.16622595 9.14958827 -21.41622929 8.10036789 -19.66625977 7.05102539 C-18.60334717 6.41801514 -17.54043457 5.78500488 -16.4453125 5.1328125 C-15.51219238 4.57480957 -14.57907227 4.01680664 -13.61767578 3.44189453 C-9.05893398 0.93080247 -5.25521534 -0.84083445 0 0 Z " fill="#353E45" transform="translate(659,538)"/>
<path d="M0 0 C0.99 0 1.98 0 3 0 C3 116.49 3 232.98 3 353 C-7.19338442 354.27417305 -12.35441336 352.77499822 -21 347.75 C-21.76634766 347.31453857 -22.53269531 346.87907715 -23.32226562 346.43041992 C-25.88883123 344.96595879 -28.44531166 343.48507672 -31 342 C-31.90878906 341.47293457 -32.81757812 340.94586914 -33.75390625 340.40283203 C-38.73419166 337.51108103 -43.70686111 334.60654262 -48.67578125 331.6953125 C-54.99574838 327.99586726 -61.33977936 324.33905745 -67.6875 320.6875 C-74.7462151 316.62693949 -81.79077265 312.54480496 -88.80859375 308.4140625 C-89.46210312 308.02964493 -90.11561249 307.64522736 -90.78892517 307.24916077 C-93.96391641 305.38094113 -97.1370475 303.50967096 -100.30737305 301.63354492 C-107.57988571 297.34124176 -114.82607549 293.27145897 -122.625 290 C-129.44535219 286.97003222 -134.7918031 283.22708264 -139 277 C-142.21461212 268.42770102 -142.14852617 259.71567354 -142.1328125 250.68359375 C-142.13417709 249.48606979 -142.13554169 248.28854584 -142.13694763 247.05473328 C-142.13896685 243.18229367 -142.13267854 239.30993173 -142.125 235.4375 C-142.12378143 234.12610046 -142.12256287 232.81470093 -142.12130737 231.46356201 C-142.10064833 212.6332049 -142.06344182 193.80578875 -141 175 C-140.94175049 173.43523926 -140.94175049 173.43523926 -140.88232422 171.83886719 C-140.44405265 163.57176202 -138.97290574 158.69120676 -132.86328125 152.859375 C-131.68573299 151.81605332 -130.50188955 150.77980219 -129.3125 149.75 C-124.1190828 145.09614123 -119.58775846 140.33315803 -115.28515625 134.82421875 C-112.60251811 131.50875315 -109.73348427 128.41716305 -106.8125 125.3125 C-103.44635988 121.73413296 -100.25840634 118.17773958 -97.375 114.1875 C-96.199375 112.6096875 -96.199375 112.6096875 -95 111 C-94.34 111 -93.68 111 -93 111 C-92.73445312 110.41476562 -92.46890625 109.82953125 -92.1953125 109.2265625 C-90.96522307 106.93521945 -89.62693945 105.28991056 -87.875 103.375 C-85.25176001 100.44472782 -82.7463974 97.4643729 -80.3125 94.375 C-76.35511358 89.37578691 -72.2171493 84.54624032 -68.03637695 79.73388672 C-65.8636219 77.22350969 -63.84430009 74.76645013 -62 72 C-61.34 72 -60.68 72 -60 72 C-59.71125 71.401875 -59.4225 70.80375 -59.125 70.1875 C-58 68 -58 68 -56 65 C-55.34 65 -54.68 65 -54 65 C-53.62875 64.16662109 -53.62875 64.16662109 -53.25 63.31640625 C-48.89516529 55.24635319 -41.63894379 48.45342042 -35.46875 41.75 C-32.27602295 38.19354455 -29.29471523 34.48634869 -26.296875 30.765625 C-23.07952426 26.89167207 -19.65099052 23.22514036 -16.234375 19.52734375 C-14.31782661 17.35949968 -12.6310627 15.19672988 -11 12.8125 C-10.34 11.884375 -9.68 10.95625 -9 10 C-8.34 10 -7.68 10 -7 10 C-6.6596875 9.195625 -6.6596875 9.195625 -6.3125 8.375 C-4.53064818 5.15069671 -2.51917702 2.70350705 0 0 Z " fill="#3B444C" transform="translate(1077,794)"/>
<path d="M0 0 C3.53998155 0.75687206 4.85785336 1.5739719 7.13671875 4.4296875 C7.99559692 5.49074707 7.99559692 5.49074707 8.87182617 6.57324219 C9.77058472 7.7126123 9.77058472 7.7126123 10.6875 8.875 C11.31180908 9.65004883 11.93611816 10.42509766 12.5793457 11.22363281 C13.82756079 12.77394207 15.07202385 14.32728059 16.3125 15.88378906 C18.41709396 18.52305706 20.54864479 21.13842679 22.6875 23.75 C23.72970703 25.02617188 23.72970703 25.02617188 24.79296875 26.328125 C27.80029794 29.96885627 30.85714529 33.56656271 33.91479492 37.16503906 C37.56039201 41.46206774 41.13017464 45.8170717 44.6875 50.1875 C47.72330978 53.87970109 50.81648797 57.52146644 53.9140625 61.16186523 C56.82566561 64.59042022 59.67759702 68.05969631 62.5 71.5625 C66.62742109 76.63671302 71.00319629 81.43819967 75.4453125 86.234375 C80.99220451 92.23926727 86.25563012 98.47747864 91.52685547 104.72363281 C101.13263557 116.08922566 110.81595448 127.42781781 121.0546875 138.23046875 C123.85554484 141.18861684 126.61964649 144.1772731 129.35693359 147.19433594 C130.43772065 148.38207756 131.5264199 149.56267559 132.62353516 150.73535156 C134.18245704 152.41877569 135.68794687 154.13867533 137.1875 155.875 C137.64495605 156.35420898 138.10241211 156.83341797 138.57373047 157.32714844 C147.37095678 167.89722531 144.26036019 189.35765503 144.1953125 202.21875 C144.19157334 204.41548533 144.18873065 206.61222235 144.18673706 208.80895996 C144.17917161 214.53644575 144.15958562 220.26382695 144.1373291 225.99127197 C144.11671631 231.85744818 144.10770263 237.72364161 144.09765625 243.58984375 C144.07633172 255.05994129 144.04228347 266.52996188 144 278 C143.00126106 278.53719917 143.00126106 278.53719917 141.98234558 279.08525085 C138.89726915 280.74617377 135.81386692 282.41018246 132.73046875 284.07421875 C131.1603302 284.9186554 131.1603302 284.9186554 129.55847168 285.78015137 C122.39119433 289.65177951 115.32681705 293.6706858 108.3125 297.8125 C107.20801514 298.460979 106.10353027 299.10945801 104.96557617 299.77758789 C103.6426355 300.55477173 103.6426355 300.55477173 102.29296875 301.34765625 C85.31493351 311.25529849 67.97145327 320.54070678 50.61932373 329.77258301 C49.08668228 330.58807235 47.55465404 331.40471524 46.02325439 332.22253418 C43.88891367 333.36112163 41.75163772 334.49397641 39.61328125 335.625 C38.65134102 336.13936615 38.65134102 336.13936615 37.66996765 336.66412354 C33.22957432 339 33.22957432 339 31 339 C31 339.66 31 340.32 31 341 C30.04609375 341.38800781 29.0921875 341.77601563 28.109375 342.17578125 C22.44190751 344.60286136 17.08334587 347.64184319 11.67578125 350.59179688 C10.85980469 351.02943359 10.04382813 351.46707031 9.203125 351.91796875 C8.46739258 352.31781982 7.73166016 352.7176709 6.97363281 353.12963867 C5 354 5 354 2 354 C1.18635214 309.9915241 0.72827192 265.98672652 0.46757126 221.97179031 C0.44237621 217.72806093 0.41613875 213.48433872 0.38955754 209.24061781 C-0.04729564 139.49344871 -0.11794771 69.74828716 0 0 Z " fill="#891618" transform="translate(528,792)"/>
<path d="M0 0 C6.64514911 0.34786687 10.92377304 2.99639234 16.4375 6.5625 C17.34709473 7.13822754 18.25668945 7.71395508 19.19384766 8.30712891 C28.21979103 14.05593221 37.10836985 20.01540717 45.9921875 25.98046875 C51.63131723 29.76312094 57.30695763 33.48661898 63 37.1875 C73.17575351 43.80388505 83.32591598 50.45853991 93.46820068 57.12606812 C103.01501484 63.40424345 103.01501484 63.40424345 112.609375 69.609375 C113.39393066 70.11243164 114.17848633 70.61548828 114.98681641 71.13378906 C116.34082413 71.99894403 117.69701057 72.86070654 119.05615234 73.71777344 C122.98009997 76.222236 126.48430498 78.96517512 130 82 C125.47001064 89.45790932 119.93540692 95.63587187 114 102 C105.17657718 111.85120614 96.67568981 122.00332213 88.14331055 132.10644531 C84.7987733 136.0636994 81.4357417 140.00469253 78.0625 143.9375 C77.56580811 144.51669189 77.06911621 145.09588379 76.55737305 145.69262695 C74.00489582 148.66756041 71.44930018 151.6397708 68.890625 154.609375 C64.3016409 159.94120634 59.74122166 165.28329671 55.3125 170.75 C52.46541499 174.2588399 49.54187448 177.65866637 46.5 181 C41.25449342 186.77005723 36.36874583 192.81291341 31.48242188 198.88623047 C25.45145177 206.37776945 19.43725598 213.82499978 12.90234375 220.88671875 C10.8340759 223.18432225 8.91050509 225.57038216 7 228 C2.04450866 226.52252943 -0.74901933 223.67666675 -4.25 220.0625 C-5.11032837 219.18742798 -5.11032837 219.18742798 -5.98803711 218.29467773 C-10.14084487 214.01734975 -13.97893446 209.55285301 -17.69140625 204.88671875 C-24.33487763 196.57956926 -31.24913482 188.61441874 -38.8671875 181.1875 C-41.99374554 177.9807738 -44.75182497 174.51212068 -47.55078125 171.01953125 C-50.30524954 167.62367162 -53.1427712 164.30931628 -56 161 C-59.53641774 156.8979768 -63.02864484 152.77196701 -66.4375 148.5625 C-70.53785914 143.5130523 -74.78369349 138.60226983 -79.0534668 133.6965332 C-86.74128976 124.85996797 -94.27958872 115.91070254 -101.67578125 106.828125 C-104.31903532 103.61179568 -106.99741602 100.42716803 -109.6875 97.25 C-110.15462402 96.69707275 -110.62174805 96.14414551 -111.10302734 95.57446289 C-113.57173922 92.65909458 -116.08074733 89.78681894 -118.625 86.9375 C-120.80537929 84.24071509 -121.37781565 83.21461912 -122 80 C-121.030625 79.814375 -120.06125 79.62875 -119.0625 79.4375 C-115.70323228 78.48556886 -113.51464856 77.00066039 -110.82202148 74.7956543 C-106.30427242 71.19523693 -101.62399397 67.98202515 -96.78515625 64.83203125 C-95.93054306 64.27110275 -95.07592987 63.71017426 -94.19541931 63.13224792 C-91.48678002 61.35540607 -88.77479734 59.58375167 -86.0625 57.8125 C-82.5109095 55.48691143 -78.96059082 53.15938405 -75.41015625 50.83203125 C-74.53657974 50.25989395 -73.66300323 49.68775665 -72.76295471 49.09828186 C-64.14223656 43.44823182 -55.56640773 37.73193952 -47 32 C-45.87365798 31.24692694 -44.74727767 30.49391115 -43.62084961 29.7409668 C-41.66228931 28.43173668 -39.703789 27.12241679 -37.74536133 25.81298828 C-29.6212976 20.38658557 -21.49110192 14.9689574 -13.3125 9.625 C-12.29820923 8.95585571 -12.29820923 8.95585571 -11.26342773 8.27319336 C-8.59389748 6.53935352 -6.08747103 5.03328857 -3.10546875 3.8984375 C-2.41066406 3.60195313 -1.71585938 3.30546875 -1 3 C-0.67 2.01 -0.34 1.02 0 0 Z " fill="#BB2024" transform="translate(799,710)"/>
<path d="M0 0 C2 0.875 2 0.875 4 2 C5.11375 2.21398437 6.2275 2.42796875 7.375 2.6484375 C13.50114887 4.14278811 18.6318318 7.54703568 24 10.75 C25.15307827 11.42804944 26.30673514 12.1051158 27.4609375 12.78125 C29.82855231 14.1700606 32.19295059 15.56410833 34.5546875 16.96289062 C38.7167055 19.42675415 42.89530652 21.86190641 47.07470703 24.29614258 C49.03482313 25.43782596 50.99412587 26.58090686 52.95263672 27.7253418 C60.32653132 32.03393611 67.72274863 36.30284775 75.125 40.5625 C84.2385478 45.8072295 93.30789216 51.12065822 102.34692383 56.49267578 C107.79290328 59.72130248 113.27873324 62.86216207 118.8125 65.9375 C127.44049986 70.77261823 127.44049986 70.77261823 131.25 73.125 C131.89453125 73.51945313 132.5390625 73.91390625 133.203125 74.3203125 C137.04631323 77.91285802 139.18535952 81.99540107 139.50024599 87.20611274 C139.52066677 88.80009851 139.51941123 90.39445721 139.50057125 91.98846245 C139.5088425 93.31852986 139.5088425 93.31852986 139.51728085 94.67546731 C139.53088825 97.65004736 139.51597187 100.62379358 139.50120544 103.59835815 C139.50509786 105.75113484 139.51073783 107.90390895 139.51797634 110.05667698 C139.53275757 115.97519878 139.5225337 121.89345524 139.50823963 127.81196856 C139.49714883 134.19382215 139.50906624 140.57563794 139.51808167 146.95748901 C139.53122307 158.73830088 139.52622287 170.51901675 139.51200638 182.29982495 C139.49895638 193.18412481 139.49375828 204.0683941 139.49632454 214.95270157 C139.49656516 216.03553015 139.49656516 216.03553015 139.49681065 217.14023405 C139.49747423 220.07060019 139.49817664 223.00096632 139.49893599 225.93133245 C139.50596113 253.42462912 139.49046563 280.91787195 139.46431253 308.41115492 C139.44120214 332.83515535 139.43580737 357.25909657 139.44604492 381.68310547 C139.44864695 387.93622269 139.45123197 394.1893399 139.45364285 400.4424572 C139.45394029 401.21229822 139.45423774 401.98213923 139.4545442 402.77530876 C139.46216053 423.18443928 139.45574551 443.59356494 139.44494683 464.0026933 C139.44379902 466.19901935 139.44265585 468.39534541 139.44152 470.59167148 C139.44076475 472.04865202 139.43999911 473.50563256 139.43922299 474.96261309 C139.43356578 485.83845202 139.43489391 496.71427561 139.43945122 507.59011459 C139.44456036 519.95867356 139.43840136 532.32716505 139.41855692 544.695711 C139.40867975 551.00763458 139.40358445 557.31946487 139.41144943 563.63139343 C139.41850095 569.40867644 139.41171371 575.18577112 139.3938458 580.96302928 C139.38979787 583.05381067 139.39080694 585.14460919 139.39736467 587.23538421 C139.40551532 590.07709957 139.39520174 592.91818046 139.38031673 595.75985527 C139.38705439 596.57167954 139.39379204 597.3835038 139.40073386 598.2199288 C139.33880978 604.33258951 138.54951588 611.1867411 134.30078125 615.875 C133.64464844 616.24625 132.98851562 616.6175 132.3125 617 C131.50554687 617.474375 130.69859375 617.94875 129.8671875 618.4375 C128.44792969 619.2109375 128.44792969 619.2109375 127 620 C125.36417969 620.928125 125.36417969 620.928125 123.6953125 621.875 C121.04685677 623.37644202 118.39038546 624.86271798 115.73046875 626.34375 C100.6205132 634.79218882 85.78439929 643.70499257 71.01113892 652.724823 C62.73878358 657.77211156 54.40575652 662.68875262 45.96923828 667.45776367 C38.48852079 671.69461094 31.08216906 676.05293718 23.6875 680.4375 C22.82208084 680.94991745 22.82208084 680.94991745 21.93917847 681.47268677 C13.20863002 686.64387653 13.20863002 686.64387653 4.67016602 692.12329102 C1.702744 693.68095984 -0.76986461 693.49694391 -4 693 C-6.4375 691.5 -6.4375 691.5 -8 690 C-7.17230103 689.76651855 -7.17230103 689.76651855 -6.32788086 689.52832031 C-0.40236443 687.72482025 4.31299657 685.18273855 9.4375 681.75 C17.23287879 676.67542626 25.17603412 671.93033962 33.25 667.3125 C41.12788697 662.80169277 48.9674282 658.25386764 56.734375 653.5546875 C63.44178144 649.51738383 70.21353375 645.58725021 76.97045898 641.63360596 C86.16100498 636.25597729 95.3384607 630.85746566 104.48608398 625.40698242 C108.54330109 622.99928949 112.61332208 620.64333037 116.76953125 618.41015625 C117.87880981 617.80977539 117.87880981 617.80977539 119.01049805 617.19726562 C120.36030148 616.47288203 121.71672729 615.76061791 123.08129883 615.06445312 C127.49108703 612.69790464 129.66649473 610.40809822 132 606 C132.54987385 602.8149247 132.51157039 599.69405389 132.46203613 596.46858215 C132.46341064 595.51572399 132.46478515 594.56286584 132.46620131 593.58113319 C132.46593118 590.39463964 132.4370255 587.20905863 132.40820312 584.02270508 C132.40216609 581.7437014 132.39789577 579.46469245 132.39526367 577.1856823 C132.38307727 570.99157685 132.34605294 564.79783657 132.3047123 558.60386634 C132.26516462 552.03542314 132.24854703 545.46692028 132.22937012 538.89839172 C132.19296843 527.2873819 132.13839763 515.67653691 132.07462972 504.06564791 C132.00288874 490.97997663 131.95004124 477.89427565 131.90316856 464.80849218 C131.83175245 445.02378057 131.74401524 425.23917785 131.64428711 405.45458984 C131.63838873 404.28397113 131.63249035 403.11335242 131.62641323 401.90726042 C131.61444785 399.53374521 131.6024822 397.16023 131.59051627 394.78671479 C131.45760275 368.40603333 131.3358651 342.02530456 131.22265625 315.64453125 C131.21453442 313.75537428 131.21453442 313.75537428 131.20624852 311.82805252 C130.98118627 259.17699761 130.91335485 206.52648933 130.9375 153.875 C130.93792423 152.92410602 130.93834846 151.97321204 130.93878555 150.99350309 C130.94939927 127.66232424 130.96865872 104.33116043 131 81 C128.43695096 82.27998952 125.87406819 83.5603101 123.3112793 84.84082031 C122.22918812 85.38115402 122.22918812 85.38115402 121.12523651 85.93240356 C106.43391349 93.27426575 92.07491251 101.12512904 77.85888672 109.34765625 C74.87879905 111.07005022 71.89484037 112.78558463 68.91015625 114.5 C29.91981981 133.65583155 29.91981981 133.65583155 -4 159 C-4.061875 158.38125 -4.12375 157.7625 -4.1875 157.125 C-4.81210579 154.76553562 -4.81210579 154.76553562 -7.3125 153.875 C-8.199375 153.58625 -9.08625 153.2975 -10 153 C-11.34050052 152.34786461 -12.67661368 151.68620031 -14 151 C-14 150.34 -14 149.68 -14 149 C-14.57621094 148.89042969 -15.15242188 148.78085937 -15.74609375 148.66796875 C-18.2807817 147.9167874 -19.91254233 146.84359135 -22.0625 145.3125 C-26.27435475 142.42201145 -30.61055875 139.97162622 -35.11328125 137.56640625 C-38.11415983 135.938054 -41.05775133 134.23185401 -44 132.5 C-47.77658781 130.27876367 -51.57526126 128.13095587 -55.4375 126.0625 C-60.69112318 123.22781123 -65.73421375 120.09917582 -70.80078125 116.9453125 C-74.59318746 114.63930726 -78.4672807 112.52849916 -82.37890625 110.43359375 C-85.84900571 108.53564069 -89.21894448 106.48857642 -92.59765625 104.43359375 C-94.89202472 103.06443403 -97.21419471 101.77386405 -99.5625 100.5 C-102.65323319 98.80525702 -105.5844127 96.98078028 -108.5 95 C-114.70859393 90.78509068 -121.25748472 87.28481514 -128 84 C-128 83.34 -128 82.68 -128 82 C-129.423125 81.5359375 -129.423125 81.5359375 -130.875 81.0625 C-134 80 -134 80 -136 79 C-135.12720944 74.83791713 -134.42210333 73.30547655 -130.91796875 70.76953125 C-129.68466086 70.0981369 -128.44062744 69.44613264 -127.1875 68.8125 C-125.9516759 68.152619 -124.71599629 67.49246733 -123.48046875 66.83203125 C-121.75763672 65.92517578 -121.75763672 65.92517578 -120 65 C-118.32921626 64.00689403 -116.66202036 63.00770338 -115 62 C-113.40077256 61.11600493 -111.79629153 60.24146725 -110.1875 59.375 C-95.84937997 51.61489296 -95.84937997 51.61489296 -81.91015625 43.171875 C-78.6158824 41.1508481 -75.19085944 39.3672535 -71.7890625 37.53515625 C-69.15103593 36.08313322 -66.57279987 34.56409897 -64 33 C-60.64975935 30.96461047 -57.26721757 29.0398818 -53.8125 27.1875 C-44.73468038 22.28265262 -35.91662569 16.90866402 -27.25 11.3125 C-22.71937077 8.39607699 -18.07130261 5.7863742 -13.3125 3.26171875 C-8.47176268 0.62057322 -5.6082902 -0.57344481 0 0 Z " fill="#F43638" transform="translate(1084,460)"/>
<path d="M0 0 C2.94491012 1.15232517 5.67241945 2.59570629 8.4375 4.125 C9.24823975 4.56239502 10.05897949 4.99979004 10.89428711 5.45043945 C18.81332268 9.7809411 26.53628026 14.44253098 34.25244141 19.12207031 C41.71368269 23.64683576 49.23747385 28.04378487 56.8125 32.375 C67.36216924 38.41618833 77.77506036 44.65768629 88.13598633 51.01513672 C93.8317128 54.50307621 99.55751971 57.90911649 105.37109375 61.1953125 C116.16309068 67.30906815 127.07784575 74.27545086 135 84 C135 84.66 135 85.32 135 86 C133.515 86.495 133.515 86.495 132 87 C131.44570313 86.36191406 130.89140625 85.72382812 130.3203125 85.06640625 C129.59585937 84.24011719 128.87140625 83.41382813 128.125 82.5625 C127.40570312 81.73878906 126.68640625 80.91507813 125.9453125 80.06640625 C123.92852731 77.92407821 122.99177843 77.08248056 120.07421875 76.83984375 C114.41893419 77.07123837 110.70079791 78.52131838 105.9453125 81.58984375 C104.79411797 82.32163192 103.64232786 83.05248388 102.48999023 83.7824707 C101.90877411 84.15377106 101.32755798 84.52507141 100.72872925 84.90762329 C98.07218856 86.58628013 95.3713851 88.18729515 92.66796875 89.7890625 C91.61536865 90.41304932 90.56276855 91.03703613 89.47827148 91.67993164 C88.39231689 92.3218042 87.3063623 92.96367676 86.1875 93.625 C85.61073517 93.96626923 85.03397034 94.30753845 84.43972778 94.65914917 C-7.4028814 149 -7.4028814 149 -12 149 C-12.33 149.66 -12.66 150.32 -13 151 C-15.89662414 149.39725825 -18.79215554 147.79255217 -21.6875 146.1875 C-22.91243164 145.50977539 -22.91243164 145.50977539 -24.16210938 144.81835938 C-28.14907263 142.6069668 -32.09559384 140.35482382 -36 138 C-37.78669209 137.01178535 -39.57851905 136.03280562 -41.375 135.0625 C-47.46706329 131.74841757 -53.42154381 128.38715322 -59.25 124.625 C-63.8364584 121.68238852 -68.51518086 119.03075682 -73.3203125 116.46484375 C-75.91097424 115.04866569 -78.42293686 113.5464965 -80.9375 112 C-85.57290632 109.17877028 -90.3569607 106.76024468 -95.23828125 104.39453125 C-97.91382393 103.04351465 -100.44903125 101.57172591 -103 100 C-108.63155251 96.58480089 -114.29229891 93.22408263 -120 89.9375 C-121.093125 89.30714844 -122.18625 88.67679688 -123.3125 88.02734375 C-127.80674241 85.5564626 -132.41275957 83.29362022 -137 81 C-137 197.16 -137 313.32 -137 433 C-137.66 432.67 -138.32 432.34 -139 432 C-139.33 330.36 -139.66 228.72 -140 124 C-140.33 124 -140.66 124 -141 124 C-141 108.16 -141 92.32 -141 76 C-125.860542 67.34888114 -125.860542 67.34888114 -119.22021484 63.79394531 C-109.20835612 58.43189721 -99.4433621 52.73142853 -89.73217773 46.8449707 C-81.97114147 42.1517957 -74.13667794 37.60331367 -66.25 33.125 C-56.25039876 27.44423677 -46.29354192 21.69625242 -36.375 15.875 C-35.46965515 15.34401703 -35.46965515 15.34401703 -34.54602051 14.80230713 C-22.37665057 7.76835456 -22.37665057 7.76835456 -10.45678711 0.328125 C-6.84704107 -1.62328297 -3.80612231 -1.03747669 0 0 Z " fill="#F43336" transform="translate(537,462)"/>
<path d="M0 0 C3.91025991 0.57929776 6.16056336 2.3061755 9 5 C12.17698951 10.05284243 12.42702652 14.09198876 12.37752342 19.86541462 C12.38188374 20.75097238 12.38624407 21.63653014 12.39073652 22.54892299 C12.40171168 25.52547137 12.39126006 28.50155839 12.38095093 31.47810364 C12.3844066 33.63001594 12.38917055 35.78192648 12.39513266 37.9338333 C12.40768495 43.85457118 12.40145298 49.77516446 12.39217401 55.69590294 C12.38540105 62.07845243 12.39585611 68.46097662 12.40411377 74.84352112 C12.41670018 86.62742975 12.41558479 98.41128679 12.40737936 110.19519794 C12.39983528 121.08274502 12.39786137 131.97027516 12.4014473 142.85782433 C12.40167645 143.57977878 12.40190561 144.30173324 12.40214171 145.04556511 C12.40307571 147.97618257 12.40403091 150.90680002 12.405021 153.83741746 C12.41420084 181.33714719 12.40587364 208.8368475 12.38973031 236.3365727 C12.37549772 260.76712218 12.37676324 285.19762475 12.39111328 309.62817383 C12.40717982 337.07279753 12.41354529 364.51739521 12.40427649 391.96202296 C12.40331434 394.88825809 12.40237582 397.81449323 12.4014473 400.74072838 C12.40121006 401.46124712 12.40097283 402.18176586 12.40072841 402.9241185 C12.39731664 413.80260259 12.40130572 424.68106786 12.40888596 435.55954933 C12.41746404 447.93178841 12.41503008 460.30396422 12.39904372 472.6761978 C12.39115457 478.99014224 12.38808044 485.30399143 12.39799118 491.61793518 C12.40692532 497.39710421 12.40202609 503.17608964 12.38605852 508.955242 C12.38270527 511.04672796 12.38441698 513.13822941 12.39168589 515.22970543 C12.40080823 518.07237815 12.39145148 520.91442201 12.37752342 523.75706196 C12.38454692 524.56917207 12.39157042 525.38128218 12.39880675 526.21800169 C12.33893427 532.33181343 11.55042543 539.18573746 7.30078125 543.875 C6.64464844 544.24625 5.98851562 544.6175 5.3125 545 C4.50554687 545.474375 3.69859375 545.94875 2.8671875 546.4375 C1.44792969 547.2109375 1.44792969 547.2109375 0 548 C-1.63582031 548.928125 -1.63582031 548.928125 -3.3046875 549.875 C-5.95314323 551.37644202 -8.60961454 552.86271798 -11.26953125 554.34375 C-26.3794868 562.79218882 -41.21560071 571.70499257 -55.98886108 580.724823 C-64.26121642 585.77211156 -72.59424348 590.68875262 -81.03076172 595.45776367 C-88.51147921 599.69461094 -95.91783094 604.05293718 -103.3125 608.4375 C-104.17791916 608.94991745 -104.17791916 608.94991745 -105.06082153 609.47268677 C-113.79136998 614.64387653 -113.79136998 614.64387653 -122.32983398 620.12329102 C-125.297256 621.68095984 -127.76986461 621.49694391 -131 621 C-133.4375 619.5 -133.4375 619.5 -135 618 C-134.44820068 617.8443457 -133.89640137 617.68869141 -133.32788086 617.52832031 C-127.40236443 615.72482025 -122.68700343 613.18273855 -117.5625 609.75 C-109.76712121 604.67542626 -101.82396588 599.93033962 -93.75 595.3125 C-85.87211303 590.80169277 -78.0325718 586.25386764 -70.265625 581.5546875 C-63.55821856 577.51738383 -56.78646625 573.58725021 -50.02954102 569.63360596 C-40.83899502 564.25597729 -31.6615393 558.85746566 -22.51391602 553.40698242 C-18.45669891 550.99928949 -14.38667792 548.64333037 -10.23046875 546.41015625 C-9.12119019 545.80977539 -9.12119019 545.80977539 -7.98950195 545.19726562 C-6.63969852 544.47288203 -5.28327271 543.76061791 -3.91870117 543.06445312 C0.47485656 540.70661485 2.62602108 538.35788699 5 534 C5.36486888 531.206365 5.51139885 528.82425273 5.45806885 526.04161072 C5.45904674 525.24550965 5.46002463 524.44940858 5.46103215 523.62918323 C5.45947948 520.9215696 5.42908423 518.21501 5.39941406 515.50756836 C5.3926208 513.50589837 5.38769543 511.50422136 5.38443756 509.5025425 C5.37331818 505.05016321 5.34933998 500.59808463 5.31624603 496.1458149 C5.26106375 488.6629174 5.23428902 481.18006273 5.21124268 473.69700623 C5.20251825 470.97367122 5.19354752 468.25033708 5.18445206 465.52700329 C5.1821409 464.83211872 5.17982975 464.13723416 5.17744856 463.42129249 C5.159852 458.26285913 5.13799943 453.10445228 5.11465073 447.94604206 C4.99839857 421.96417997 4.96788695 395.98258748 4.95507812 370.00048828 C4.950543 361.30294787 4.94575979 352.60540761 4.9407959 343.90786743 C4.94018073 342.80784007 4.93956557 341.70781271 4.93893176 340.57445119 C4.92188259 310.87625888 4.87277502 281.1781184 4.82200381 251.47996757 C4.81202159 245.62849098 4.80220488 239.77701413 4.79248047 233.92553711 C4.7905406 232.7630487 4.78860073 231.60056028 4.78660208 230.40284495 C4.75505879 211.26324034 4.73843012 192.12364815 4.72680578 172.98402227 C4.71441877 153.09772354 4.68704336 133.21148737 4.64538693 113.32522815 C4.62037043 101.16424335 4.60687386 89.00336201 4.60857043 76.84235107 C4.60860006 68.59091477 4.59407679 60.33958613 4.56783572 52.08819181 C4.55315553 47.33744867 4.54501909 42.58692653 4.55419731 37.83616447 C4.56244491 33.49495079 4.55244039 29.15418312 4.52766338 24.81303584 C4.52195386 23.24173723 4.52303501 21.67039668 4.53148755 20.09911043 C4.54197128 17.9688519 4.52800302 15.8401106 4.50780869 13.70995426 C4.50553036 11.93434214 4.50553036 11.93434214 4.50320601 10.12285906 C3.90076148 6.38413316 2.48521518 4.78492394 0 2 C0 1.34 0 0.68 0 0 Z " fill="#F74846" transform="translate(1211,532)"/>
<path d="M0 0 C0.33 0 0.66 0 1 0 C1 56.1 1 112.2 1 170 C5.61601361 167.23039183 7.97481316 164.85137175 11.0625 160.6875 C14.94389647 155.59774425 18.93017087 150.64758194 23.125 145.8125 C26.65563553 141.74054907 30.1250762 137.64092495 33.5 133.4375 C37.32949037 128.71307438 41.40252552 124.27389902 45.55639648 119.83789062 C49.47626285 115.62907376 53.11277581 111.24241977 56.71484375 106.7578125 C60.14347592 102.62001026 63.79892913 98.70328893 67.44921875 94.76171875 C75.95929217 85.54790266 83.98788967 75.87864164 92.125 66.3359375 C96.58867561 61.10683782 101.05980596 55.89814293 105.6875 50.8125 C108.75175042 47.44458512 111.65143574 43.98959568 114.5 40.4375 C118.06306932 36.02874581 121.85589702 32.03027961 125.91796875 28.08203125 C127.89124889 26.10875111 129.70624832 24.0737341 131.5 21.9375 C132.325 20.968125 133.15 19.99875 134 19 C134.33 19 134.66 19 135 19 C135.49975297 23.6643611 135.61699583 26.75730724 132.8125 30.625 C129.06877594 35.14053447 124.97917445 39.37872879 120.95898438 43.64819336 C116.81731359 48.05902563 112.95883189 52.63184245 109.17578125 57.35546875 C106.869683 60.15839248 104.45848469 62.83003275 102 65.5 C98.72581577 69.05670244 95.59357567 72.67161811 92.5625 76.4375 C88.42188033 81.56747127 84.0273268 86.404648 79.55078125 91.23828125 C75.3378403 95.79961242 71.28567106 100.49022292 67.2578125 105.21484375 C66.23455265 106.41421409 65.21110963 107.61342817 64.1875 108.8125 C63.67026367 109.41860107 63.15302734 110.02470215 62.62011719 110.64916992 C59.4151062 114.39051541 56.14798497 118.0610693 52.8125 121.6875 C48.85694349 126.00094019 45.13659491 130.45200175 41.46484375 135.0078125 C39.15945384 137.80643163 36.79342694 140.53339376 34.3972168 143.25366211 C27.81644059 150.72982183 21.67169601 158.46332196 15.6796875 166.41796875 C15.20571533 167.04558105 14.73174316 167.67319336 14.2434082 168.31982422 C13.24206103 169.67291106 12.28701953 171.06020027 11.34765625 172.45703125 C10 174 10 174 6.5625 174.5 C3 174 3 174 0.80503464 172.40217972 C-1.63630372 169.15319304 -1.4788356 167.10842282 -1.4430542 163.06512451 C-1.44238835 162.36750291 -1.44172249 161.66988131 -1.44103646 160.95111966 C-1.43391401 158.61368746 -1.39804317 156.27758648 -1.36230469 153.94042969 C-1.35131427 152.26499458 -1.3420957 150.58954704 -1.33451843 148.91409302 C-1.30891236 144.36460725 -1.25847877 139.81569333 -1.20364666 135.26647854 C-1.15055077 130.51265867 -1.12020424 125.75869549 -1.08746338 121.00469971 C-1.02199436 112.00190494 -0.93601239 102.99942714 -0.84269357 93.99688268 C-0.73745188 83.7480128 -0.65502733 73.49899938 -0.5745368 63.24990988 C-0.40844632 42.16634743 -0.21364492 21.08313065 0 0 Z " fill="#E74644" transform="translate(802,942)"/>
<path d="M0 0 C0.99 0.33 1.98 0.66 3 1 C2.34 1 1.68 1 1 1 C1 175.24 1 349.48 1 529 C0.01 529.33 -0.98 529.66 -2 530 C-2 470.93 -2 411.86 -2 351 C-1.67 351 -1.34 351 -1 351 C-0.67 235.17 -0.34 119.34 0 0 Z " fill="#F83D3E" transform="translate(400,543)"/>
<path d="M0 0 C3.17401657 0.28522269 4.10079122 1.10395134 6.3671875 3.44140625 C7.21343241 4.47340408 8.0489302 5.51428311 8.875 6.5625 C9.31118652 7.10245605 9.74737305 7.64241211 10.19677734 8.19873047 C11.47594411 9.79046668 12.73991553 11.39313619 14 13 C14.65484375 13.82628906 15.3096875 14.65257812 15.984375 15.50390625 C20 20.69553571 20 20.69553571 20 23 C20.66 23 21.32 23 22 23 C23.77734375 24.9140625 23.77734375 24.9140625 25.9375 27.625 C26.74445312 28.63175781 27.55140625 29.63851562 28.3828125 30.67578125 C30.13626598 32.89563488 31.87870518 35.12387787 33.6171875 37.35546875 C39.71800728 45.18409241 46.01890095 52.78335073 52.51806641 60.28417969 C54.92490022 63.07087294 57.30828455 65.87721883 59.6875 68.6875 C60.14253906 69.22439453 60.59757813 69.76128906 61.06640625 70.31445312 C63.92282094 73.69509422 66.7212604 77.11745517 69.5 80.5625 C73.14386647 85.04575714 76.98131696 89.29302453 80.9140625 93.51977539 C84.69533641 97.60669348 88.19701406 101.88057462 91.6875 106.21875 C94.19972888 109.24021446 96.82426168 112.12415897 99.5 115 C104.58445645 120.47279128 109.32265907 126.17427966 114 132 C115.49815155 133.83484415 116.99816134 135.66817257 118.5 137.5 C123 143 127.5 148.5 132 154 C131.34 154.99 130.68 155.98 130 157 C124.71396849 151.97322889 119.98861494 146.67699136 115.421875 140.9921875 C112.8089252 137.76393016 110.13190764 134.59765922 107.4375 131.4375 C104.23599152 127.67970883 101.10225942 123.89114432 98.0625 120 C94.4357897 115.41458964 90.50700311 111.17022662 86.51220703 106.90869141 C82.40948892 102.50854254 78.58980937 97.94884825 74.83984375 93.2421875 C73.30411728 91.37062276 71.71267411 89.70283115 70 88 C67 83.55555556 67 83.55555556 67 80 C65.515 79.505 65.515 79.505 64 79 C62 76.5 62 76.5 60 74 C58.86720494 73.06726898 57.72024062 72.15158109 56.5625 71.25 C52.44755045 67.85184811 50.29746427 63.746827 48 59 C47.13894851 56.80566673 47.13894851 56.80566673 44.80078125 55.78515625 C41.21172731 53.49757236 38.88163564 50.69504969 36.1875 47.4375 C35.65688965 46.80690674 35.1262793 46.17631348 34.57958984 45.52661133 C31.07403366 41.34412383 27.64099823 37.10628437 24.2578125 32.82421875 C21.2128779 29.01541648 18.10486049 25.25999584 15 21.5 C13.78888832 20.0287892 12.57794707 18.55743809 11.3671875 17.0859375 C9.35975936 14.64665927 7.34531574 12.21375798 5.3203125 9.7890625 C4.23363281 8.47035156 4.23363281 8.47035156 3.125 7.125 C2.50882813 6.38507812 1.89265625 5.64515625 1.2578125 4.8828125 C0 3 0 3 0 0 Z " fill="#ED4544" transform="translate(670,548)"/>
<path d="M0 0 C0.33 0 0.66 0 1 0 C1 117.15 1 234.3 1 355 C-6.83679942 356.11954277 -7.13594344 355.94926258 -13 352 C-10 351 -10 351 -7 352 C-4.69 352 -2.38 352 0 352 C0 235.84 0 119.68 0 0 Z " fill="#282E34" transform="translate(1080,795)"/>
<path d="M0 0 C3.17401657 0.28522269 4.10079122 1.10395134 6.3671875 3.44140625 C7.21343241 4.47340408 8.0489302 5.51428311 8.875 6.5625 C9.31118652 7.10245605 9.74737305 7.64241211 10.19677734 8.19873047 C11.47594411 9.79046668 12.73991553 11.39313619 14 13 C14.65484375 13.82628906 15.3096875 14.65257812 15.984375 15.50390625 C20 20.69553571 20 20.69553571 20 23 C20.66 23 21.32 23 22 23 C23.77734375 24.9140625 23.77734375 24.9140625 25.9375 27.625 C26.74445312 28.63175781 27.55140625 29.63851562 28.3828125 30.67578125 C30.13626598 32.89563488 31.87870518 35.12387787 33.6171875 37.35546875 C34.05869141 37.92168945 34.50019531 38.48791016 34.95507812 39.07128906 C35.86641491 40.24029157 36.77655563 41.41022741 37.68554688 42.58105469 C40.12460676 45.69876512 42.61795809 48.74485079 45.2265625 51.72265625 C45.76240967 52.33455811 46.29825684 52.94645996 46.8503418 53.5769043 C47.87263174 54.73505926 48.90222748 55.8868267 49.94067383 57.03051758 C53.9516579 61.567263 58 66.74725306 58 73 C53.78896988 68.55239515 50.37531934 64.50016719 48.1171875 58.76171875 C47.06684611 56.80807217 47.06684611 56.80807217 44.74609375 55.6796875 C41.14026773 53.47413247 38.86151328 50.67071922 36.1875 47.4375 C35.65688965 46.80690674 35.1262793 46.17631348 34.57958984 45.52661133 C31.07403366 41.34412383 27.64099823 37.10628437 24.2578125 32.82421875 C21.2128779 29.01541648 18.10486049 25.25999584 15 21.5 C13.78888832 20.0287892 12.57794707 18.55743809 11.3671875 17.0859375 C9.35975936 14.64665927 7.34531574 12.21375798 5.3203125 9.7890625 C4.23363281 8.47035156 4.23363281 8.47035156 3.125 7.125 C2.50882813 6.38507812 1.89265625 5.64515625 1.2578125 4.8828125 C0 3 0 3 0 0 Z " fill="#985656" transform="translate(670,548)"/>
<path d="M0 0 C4.28886643 1.59909934 8.28820384 3.64891077 12.3125 5.8125 C13.31651855 6.34979736 13.31651855 6.34979736 14.34082031 6.89794922 C18.33349639 9.05166281 22.220457 11.2988527 26.01953125 13.78125 C29.49021241 15.91705379 33.14693738 17.72265039 36.77734375 19.5703125 C39 21 39 21 40 24 C36.54062736 22.71491615 33.59098593 21.19346518 30.5 19.1875 C26.56912785 16.76444 22.72011508 15.05758766 18.375 13.5 C10.57177225 10.63238273 4.84018176 6.85692417 0 0 Z " fill="#323237" transform="translate(939,1072)"/>
<path d="M0 0 C6.80551121 3.61588716 13.51606815 7.39328566 20.1875 11.25 C21.33786743 11.90427979 21.33786743 11.90427979 22.51147461 12.57177734 C24.37531187 13.65762661 26.192919 14.82211367 28 16 C28 16.66 28 17.32 28 18 C24.47551493 17.33298297 21.81699862 15.89642169 18.75 14.0625 C17.85796875 13.53785156 16.9659375 13.01320313 16.046875 12.47265625 C15.37140625 11.98667969 14.6959375 11.50070312 14 11 C14 10.34 14 9.68 14 9 C13.34 8.938125 12.68 8.87625 12 8.8125 C7.87043321 7.69407566 4.33003359 5.6920365 1 3 C0.67 2.01 0.34 1.02 0 0 Z " fill="#FC4645" transform="translate(1181,514)"/>
<path d="M0 0 C4.44689714 1.6546594 8.56942468 3.77680387 12.75 6 C13.43449219 6.35578125 14.11898437 6.7115625 14.82421875 7.078125 C19.88081199 9.76162399 19.88081199 9.76162399 21 12 C19.906875 11.67 18.81375 11.34 17.6875 11 C14.15421116 9.86913351 14.15421116 9.86913351 11 10 C6.23763418 7.30822801 3.28968143 4.25723479 0 0 Z " fill="#24282C" transform="translate(939,1072)"/>
<path d="M0 0 C3.56764821 0.57619097 5.25159497 1.86969484 7.75 4.4375 C8.67039062 5.36369141 8.67039062 5.36369141 9.609375 6.30859375 C11 8 11 8 11 10 C10.01 10.33 9.02 10.66 8 11 C6.66072279 9.54712339 5.32873153 8.08752741 4 6.625 C3.2575 5.81289063 2.515 5.00078125 1.75 4.1640625 C0 2 0 2 0 0 Z " fill="#ED4847" transform="translate(661,538)"/>
<path d="M0 0 C0.33 0 0.66 0 1 0 C1 2.64 1 5.28 1 8 C0.34 7.01 -0.32 6.02 -1 5 C-3.97 7.97 -6.94 10.94 -10 14 C-10.66 13.67 -11.32 13.34 -12 13 C-10.02404535 10.8303243 -8.04445723 8.66418031 -6.0625 6.5 C-5.21655273 5.56994141 -5.21655273 5.56994141 -4.35351562 4.62109375 C-2.92272025 3.06178382 -1.46353265 1.52862521 0 0 Z " fill="#D84443" transform="translate(936,961)"/>
<path d="M0 0 C3.69876091 1.37287342 6.9514476 3.06355453 10.3125 5.125 C11.19550781 5.66382813 12.07851562 6.20265625 12.98828125 6.7578125 C13.65214844 7.16773438 14.31601563 7.57765625 15 8 C13.359375 8.70703125 13.359375 8.70703125 11 9 C8.203125 7.63671875 8.203125 7.63671875 5.25 5.6875 C4.26515625 5.05199219 3.2803125 4.41648437 2.265625 3.76171875 C1.51796875 3.18035156 0.7703125 2.59898437 0 2 C0 1.34 0 0.68 0 0 Z " fill="#FB4745" transform="translate(1151,497)"/>
<path d="M0 0 C0.99 0 1.98 0 3 0 C3.61875 1.6396875 3.61875 1.6396875 4.25 3.3125 C5.61722038 6.55719525 7.02405799 8.05024489 10 10 C10 10.66 10 11.32 10 12 C6.55571735 10.55218207 4.63869038 8.72305391 2.25 5.875 C1.63640625 5.15054688 1.0228125 4.42609375 0.390625 3.6796875 C-0.06828125 3.12539063 -0.5271875 2.57109375 -1 2 C-0.67 1.34 -0.34 0.68 0 0 Z " fill="#7D5B5B" transform="translate(670,548)"/>
<path d="M0 0 C3.88192126 3.76774711 7.79531881 7.62797789 11 12 C11 12.66 11 13.32 11 14 C7.49113968 12.59645587 6.5732852 11.35634177 5 8 C4.01 7.34 3.02 6.68 2 6 C0.8125 2.875 0.8125 2.875 0 0 Z " fill="#D24847" transform="translate(673,549)"/>
<path d="M0 0 C6.60462428 3.18843931 6.60462428 3.18843931 8.1875 6.4375 C9 9 9 9 9 12 C7.86966702 10.75482035 6.74594964 9.50363348 5.625 8.25 C4.99851562 7.55390625 4.37203125 6.8578125 3.7265625 6.140625 C2.12494817 4.15491312 1.03479932 2.32045907 0 0 Z " fill="#815859" transform="translate(719,609)"/>
<path d="M0 0 C1.98270912 0.95098266 3.96108379 1.91100703 5.9375 2.875 C7.03964844 3.40867187 8.14179687 3.94234375 9.27734375 4.4921875 C12 6 12 6 13 8 C8.31479085 6.78184562 4.29456388 5.30440013 0 3 C0 2.01 0 1.02 0 0 Z " fill="#FC4343" transform="translate(1167,506)"/>
<path d="M0 0 C3.96 1.98 7.92 3.96 12 6 C12 6.66 12 7.32 12 8 C8.02712922 7.43244703 5.3546267 6.17597408 2 4 C1.34 3.67 0.68 3.34 0 3 C0 2.01 0 1.02 0 0 Z " fill="#FB4646" transform="translate(1112,474)"/>
<path d="M0 0 C5.80160774 1.48701402 10.57763179 2.72504406 15 7 C9.77999416 6.47799942 5.41286212 4.79095098 1 2 C0.67 1.34 0.34 0.68 0 0 Z " fill="#863839" transform="translate(952,1081)"/>
<path d="M0 0 C3.3 1.65 6.6 3.3 10 5 C10 5.66 10 6.32 10 7 C5.48521602 6.46884894 2.65333143 4.63379708 -1 2 C-0.67 1.34 -0.34 0.68 0 0 Z " fill="#FA4544" transform="translate(1136,488)"/>
<path d="M0 0 C3.0831351 1.19899698 6.06279492 2.47700477 9 4 C9 4.66 9 5.32 9 6 C5.51669784 5.35494404 2.90567134 4.01782732 0 2 C0 1.34 0 0.68 0 0 Z " fill="#FA4745" transform="translate(1125,482)"/>
<path d="M0 0 C3.96 1.98 3.96 1.98 8 4 C7.67 4.99 7.34 5.98 7 7 C4.36 5.35 1.72 3.7 -1 2 C-0.67 1.34 -0.34 0.68 0 0 Z " fill="#F94645" transform="translate(1102,468)"/>
</svg>
